<svg version="1.2" baseProfile="tiny-ps" xmlns="http://www.w3.org/2000/svg" viewBox="0 0 851 741" width="851" height="741">
	<title>developing-svg-svg</title>
	<style>
		tspan { white-space:pre }
		.shp0 { fill: #2f2e41 } 
		.shp1 { fill: #ffffff } 
		.shp2 { fill: #e6e6e6 } 
		.shp3 { fill: #ffb6b6 } 
		.shp4 { fill: #c64103 } 
		.shp5 { fill: #cacaca } 
		.shp6 { fill: #3f3d56 } 
	</style>
	<path id="Layer" class="shp0" d="M766.88 385.54C766.91 408.19 764.76 430.8 760.47 453.04C756.18 475.28 749.77 497.06 741.32 518.08C732.87 539.1 722.42 559.26 710.12 578.28C697.82 597.31 683.73 615.11 668.03 631.44C664.2 635.45 660.26 639.36 656.23 643.18C650.08 649.03 643.72 654.65 637.16 660.05C621.94 672.59 605.71 683.83 588.62 693.66C571.53 703.49 553.65 711.88 535.17 718.73C516.69 725.59 497.66 730.89 478.29 734.57C458.93 738.26 439.29 740.32 419.58 740.74C416.93 740.8 414.27 740.83 411.6 740.83C348.17 740.83 268.39 706.95 195.99 660.05C190 656.17 184.06 652.2 178.18 648.14C175.43 646.26 172.69 644.35 169.97 642.42C162.99 637.49 156.1 632.44 149.3 627.27C142.5 622.1 135.79 616.82 129.17 611.41C122.56 606.01 116.03 600.49 109.61 594.85C103.19 589.22 96.87 583.47 90.65 577.62C86.58 573.8 82.56 569.91 78.62 565.96C74.67 562 70.79 557.99 66.98 553.91C63.16 549.83 59.41 545.68 55.73 541.48C52.05 537.28 48.44 533.02 44.9 528.7C-10.73 460.08 -23 398.25 56.31 385.54C65.7 384.04 74.81 382.44 83.65 380.73C96.45 378.27 108.7 375.61 120.4 372.76C136.16 368.93 150.96 364.78 164.82 360.3C169.48 358.8 174.03 357.27 178.48 355.71C244.22 332.62 288.22 302.51 318.17 269.84C323.25 264.31 327.93 258.71 332.22 253.05C333.86 250.9 335.46 248.71 337.02 246.5C338.59 244.29 340.11 242.06 341.6 239.8C343.09 237.53 344.53 235.25 345.94 232.94C347.35 230.62 348.72 228.29 350.05 225.93C351.88 222.65 353.64 219.34 355.33 215.98C357.01 212.63 358.62 209.24 360.16 205.81C361.7 202.39 363.16 198.93 364.54 195.44C365.92 191.95 367.23 188.43 368.46 184.88L368.73 184.1C392.56 115.36 385.31 51.6 411.6 30.26C523.98 -60.97 663.89 68.95 729.56 222.16C732.87 229.88 735.98 237.65 738.9 245.46C740.21 248.95 741.47 252.45 742.69 255.95C745.89 265.08 748.79 274.23 751.4 283.41C752.4 286.91 753.35 290.41 754.26 293.9C755.23 297.67 756.16 301.43 757.02 305.19C763.41 332.72 766.88 359.87 766.88 385.54Z" />
	<path id="Layer" class="shp0" d="M419.58 740.74C416.93 740.8 414.27 740.83 411.6 740.83C348.17 740.83 268.39 706.95 195.99 660.05C190 656.17 184.06 652.2 178.18 648.14L183.34 616.74L339.55 596L417.95 655.95L419.58 740.74Z" />
	<path id="Layer" class="shp1" d="M427.1 180.05L404.84 180.05C404.5 180.05 404.16 180.12 403.84 180.25C403.53 180.38 403.24 180.57 403 180.81C402.76 181.05 402.57 181.34 402.44 181.65C402.31 181.97 402.24 182.31 402.24 182.65L402.24 204.92C402.24 205.26 402.31 205.6 402.44 205.91C402.57 206.23 402.76 206.51 403 206.75C403.24 206.99 403.53 207.18 403.84 207.31C404.16 207.44 404.5 207.51 404.84 207.51L427.1 207.51C427.44 207.51 427.78 207.44 428.09 207.31C428.41 207.18 428.69 206.99 428.93 206.75C429.17 206.51 429.37 206.23 429.5 205.91C429.63 205.6 429.7 205.26 429.7 204.92L429.7 182.65C429.7 182.31 429.63 181.97 429.5 181.66C429.37 181.34 429.18 181.05 428.93 180.81C428.69 180.57 428.41 180.38 428.09 180.25C427.78 180.12 427.44 180.05 427.1 180.05L427.1 180.05Z" />
	<path id="Layer" class="shp2" d="M427.1 218L404.84 218C404.5 218 404.16 218.07 403.84 218.2C403.53 218.33 403.24 218.52 403 218.76C402.76 219 402.57 219.29 402.44 219.6C402.31 219.92 402.24 220.26 402.24 220.6L402.24 242.87C402.24 243.21 402.31 243.55 402.44 243.86C402.57 244.18 402.76 244.46 403 244.7C403.24 244.94 403.53 245.13 403.84 245.26C404.16 245.39 404.5 245.46 404.84 245.46L427.1 245.46C427.44 245.46 427.78 245.39 428.09 245.26C428.41 245.13 428.69 244.94 428.93 244.7C429.17 244.46 429.37 244.18 429.5 243.86C429.63 243.55 429.7 243.21 429.7 242.87L429.7 220.6C429.7 220.26 429.63 219.92 429.5 219.61C429.37 219.29 429.18 219 428.93 218.76C428.69 218.52 428.41 218.33 428.09 218.2C427.78 218.07 427.44 218 427.1 218L427.1 218Z" />
	<path id="Layer" class="shp2" d="M427.1 255.95L404.84 255.95C404.5 255.95 404.16 256.02 403.84 256.15C403.53 256.28 403.24 256.47 403 256.71C402.76 256.95 402.57 257.24 402.44 257.55C402.31 257.87 402.24 258.21 402.24 258.55L402.24 280.81C402.24 281.15 402.3 281.49 402.43 281.81C402.57 282.12 402.76 282.41 403 282.65C403.24 282.89 403.53 283.08 403.84 283.21C404.16 283.34 404.5 283.41 404.84 283.41L427.1 283.41C427.44 283.41 427.78 283.34 428.09 283.21C428.41 283.08 428.69 282.89 428.94 282.65C429.18 282.41 429.37 282.12 429.5 281.8C429.63 281.49 429.7 281.15 429.7 280.81L429.7 258.55C429.7 258.21 429.63 257.87 429.5 257.56C429.37 257.24 429.18 256.95 428.93 256.71C428.69 256.47 428.41 256.28 428.09 256.15C427.78 256.02 427.44 255.95 427.1 255.95L427.1 255.95Z" />
	<path id="Layer" class="shp2" d="M429.66 296.04C429.6 295.74 429.5 295.46 429.34 295.2C429.19 294.94 429 294.7 428.76 294.51C428.53 294.31 428.27 294.16 427.98 294.06C427.7 293.95 427.4 293.9 427.1 293.9L404.84 293.9C404.5 293.9 404.16 293.97 403.84 294.1C403.53 294.23 403.24 294.42 403 294.66C402.76 294.9 402.57 295.19 402.44 295.5C402.31 295.82 402.24 296.16 402.24 296.5L402.24 318.76C402.24 319.1 402.3 319.44 402.43 319.76C402.56 320.07 402.76 320.36 403 320.6C403.24 320.84 403.53 321.03 403.84 321.16C404.16 321.29 404.5 321.36 404.84 321.36L427.1 321.36C427.44 321.36 427.78 321.29 428.09 321.16C428.41 321.03 428.69 320.84 428.94 320.6C429.18 320.36 429.37 320.07 429.5 319.75C429.63 319.44 429.7 319.1 429.7 318.76L429.7 296.5C429.7 296.46 429.7 296.42 429.7 296.38C429.7 296.35 429.69 296.31 429.69 296.27C429.69 296.23 429.68 296.19 429.68 296.15C429.67 296.12 429.67 296.08 429.66 296.04L429.66 296.04Z" />
	<path id="Layer" class="shp2" d="M428.11 332.05C428.03 332.02 427.95 331.99 427.86 331.96C427.78 331.94 427.7 331.92 427.61 331.9C427.53 331.88 427.44 331.87 427.36 331.86C427.27 331.85 427.18 331.85 427.1 331.85L404.84 331.85C404.5 331.85 404.16 331.92 403.84 332.05C403.53 332.18 403.24 332.37 403 332.61C402.76 332.85 402.57 333.14 402.43 333.45C402.3 333.77 402.24 334.11 402.24 334.45L402.24 356.71C402.24 357.05 402.3 357.39 402.43 357.71C402.56 358.02 402.75 358.31 403 358.55C403.24 358.79 403.53 358.98 403.84 359.11C404.16 359.24 404.5 359.31 404.84 359.31L427.1 359.31C427.44 359.31 427.78 359.24 428.09 359.11C428.41 358.98 428.69 358.79 428.94 358.55C429.18 358.31 429.37 358.02 429.5 357.7C429.63 357.39 429.7 357.05 429.7 356.71L429.7 334.45C429.7 334.2 429.66 333.94 429.59 333.7C429.51 333.45 429.4 333.22 429.26 333.01C429.12 332.8 428.95 332.61 428.76 332.45C428.56 332.28 428.34 332.15 428.11 332.05Z" />
	<path id="Layer" class="shp2" d="M473.86 180.05L451.6 180.05C451.26 180.05 450.92 180.12 450.6 180.25C450.29 180.38 450 180.57 449.76 180.81C449.52 181.05 449.33 181.34 449.2 181.65C449.07 181.97 449 182.31 449 182.65L449 204.92C449 205.26 449.07 205.6 449.2 205.91C449.33 206.23 449.52 206.51 449.76 206.75C450 206.99 450.29 207.18 450.6 207.31C450.92 207.44 451.26 207.51 451.6 207.51L473.86 207.51C474.2 207.51 474.54 207.44 474.85 207.31C475.17 207.18 475.45 206.99 475.69 206.75C475.93 206.51 476.13 206.23 476.26 205.91C476.39 205.6 476.46 205.26 476.46 204.92L476.46 182.65C476.46 182.31 476.39 181.97 476.26 181.66C476.13 181.34 475.94 181.05 475.69 180.81C475.45 180.57 475.17 180.38 474.85 180.25C474.54 180.12 474.2 180.05 473.86 180.05L473.86 180.05Z" />
	<path id="Layer" class="shp0" d="M473.86 218L451.6 218C451.26 218 450.92 218.07 450.6 218.2C450.29 218.33 450 218.52 449.76 218.76C449.52 219 449.33 219.29 449.2 219.6C449.07 219.92 449 220.26 449 220.6L449 242.87C449 243.21 449.07 243.55 449.2 243.86C449.33 244.18 449.52 244.46 449.76 244.7C450 244.94 450.29 245.13 450.6 245.26C450.92 245.39 451.26 245.46 451.6 245.46L473.86 245.46C474.2 245.46 474.54 245.39 474.85 245.26C475.17 245.13 475.45 244.94 475.69 244.7C475.93 244.46 476.13 244.18 476.26 243.86C476.39 243.55 476.46 243.21 476.46 242.87L476.46 220.6C476.46 220.26 476.39 219.92 476.26 219.61C476.13 219.29 475.94 219 475.69 218.76C475.45 218.52 475.17 218.33 474.85 218.2C474.54 218.07 474.2 218 473.86 218L473.86 218Z" />
	<path id="Layer" class="shp0" d="M473.86 255.95L451.6 255.95C451.26 255.95 450.92 256.02 450.6 256.15C450.29 256.28 450 256.47 449.76 256.71C449.52 256.95 449.33 257.24 449.2 257.55C449.07 257.87 449 258.21 449 258.55L449 280.81C449 281.15 449.06 281.49 449.19 281.81C449.33 282.12 449.52 282.41 449.76 282.65C450 282.89 450.29 283.08 450.6 283.21C450.92 283.34 451.26 283.41 451.6 283.41L473.86 283.41C474.2 283.41 474.54 283.34 474.85 283.21C475.17 283.08 475.45 282.89 475.7 282.65C475.94 282.41 476.13 282.12 476.26 281.8C476.39 281.49 476.46 281.15 476.46 280.81L476.46 258.55C476.46 258.21 476.39 257.87 476.26 257.56C476.13 257.24 475.94 256.95 475.69 256.71C475.45 256.47 475.17 256.28 474.85 256.15C474.54 256.02 474.2 255.95 473.86 255.95L473.86 255.95Z" />
	<path id="Layer" class="shp0" d="M473.86 293.9L451.6 293.9C451.33 293.9 451.06 293.94 450.8 294.03C450.54 294.11 450.3 294.23 450.08 294.39C449.86 294.55 449.67 294.74 449.51 294.96C449.35 295.18 449.22 295.42 449.14 295.68C449.11 295.75 449.09 295.81 449.08 295.88C449.06 295.95 449.05 296.01 449.03 296.08C449.02 296.15 449.01 296.22 449.01 296.29C449 296.36 449 296.43 449 296.5L449 318.76C449 319.1 449.06 319.44 449.19 319.76C449.33 320.07 449.52 320.36 449.76 320.6C450 320.84 450.29 321.03 450.6 321.16C450.92 321.29 451.26 321.36 451.6 321.36L473.86 321.36C474.2 321.36 474.54 321.29 474.85 321.16C475.17 321.03 475.45 320.84 475.7 320.6C475.94 320.36 476.13 320.07 476.26 319.75C476.39 319.44 476.46 319.1 476.46 318.76L476.46 296.5C476.46 296.16 476.39 295.82 476.26 295.51C476.13 295.19 475.94 294.9 475.69 294.66C475.45 294.42 475.17 294.23 474.85 294.1C474.54 293.97 474.2 293.9 473.86 293.9Z" />
	<path id="Layer" class="shp2" d="M473.86 331.85L451.6 331.85C451.26 331.85 450.92 331.92 450.6 332.05C450.29 332.18 450 332.37 449.76 332.61C449.52 332.85 449.33 333.14 449.19 333.45C449.06 333.77 449 334.11 449 334.45L449 356.71C449 357.05 449.06 357.39 449.19 357.71C449.33 358.02 449.52 358.31 449.76 358.55C450 358.79 450.29 358.98 450.6 359.11C450.92 359.24 451.26 359.31 451.6 359.31L473.86 359.31C474.2 359.31 474.54 359.24 474.85 359.11C475.17 358.98 475.45 358.79 475.7 358.55C475.94 358.31 476.13 358.02 476.26 357.7C476.39 357.39 476.46 357.05 476.46 356.71L476.46 334.45C476.46 334.11 476.39 333.77 476.26 333.45C476.13 333.14 475.94 332.85 475.7 332.61C475.45 332.37 475.17 332.18 474.85 332.05C474.54 331.92 474.2 331.85 473.86 331.85L473.86 331.85Z" />
	<path id="Layer" class="shp0" d="M520.62 180.05L498.36 180.05C498.02 180.05 497.68 180.12 497.36 180.25C497.05 180.38 496.76 180.57 496.52 180.81C496.28 181.05 496.09 181.34 495.96 181.65C495.83 181.97 495.76 182.31 495.76 182.65L495.76 204.92C495.76 205.26 495.83 205.6 495.96 205.91C496.09 206.23 496.28 206.51 496.52 206.75C496.76 206.99 497.05 207.18 497.36 207.31C497.68 207.44 498.02 207.51 498.36 207.51L520.62 207.51C520.96 207.51 521.3 207.44 521.61 207.31C521.93 207.18 522.21 206.99 522.45 206.75C522.69 206.51 522.89 206.23 523.02 205.91C523.15 205.6 523.22 205.26 523.22 204.92L523.22 182.65C523.22 182.31 523.15 181.97 523.02 181.66C522.89 181.34 522.7 181.05 522.45 180.81C522.21 180.57 521.93 180.38 521.61 180.25C521.3 180.12 520.96 180.05 520.62 180.05L520.62 180.05Z" />
	<path id="Layer" class="shp0" d="M520.62 218L498.36 218C498.02 218 497.68 218.07 497.36 218.2C497.05 218.33 496.76 218.52 496.52 218.76C496.28 219 496.09 219.29 495.96 219.6C495.83 219.92 495.76 220.26 495.76 220.6L495.76 242.87C495.76 243.21 495.83 243.55 495.96 243.86C496.09 244.18 496.28 244.46 496.52 244.7C496.76 244.94 497.05 245.13 497.36 245.26C497.68 245.39 498.02 245.46 498.36 245.46L520.62 245.46C520.96 245.46 521.3 245.39 521.61 245.26C521.93 245.13 522.21 244.94 522.45 244.7C522.69 244.46 522.89 244.18 523.02 243.86C523.15 243.55 523.22 243.21 523.22 242.87L523.22 220.6C523.22 220.26 523.15 219.92 523.02 219.61C522.89 219.29 522.7 219 522.45 218.76C522.21 218.52 521.93 218.33 521.61 218.2C521.3 218.07 520.96 218 520.62 218L520.62 218Z" />
	<path id="Layer" class="shp2" d="M520.62 255.95L498.36 255.95C498.02 255.95 497.68 256.02 497.36 256.15C497.05 256.28 496.76 256.47 496.52 256.71C496.28 256.95 496.09 257.24 495.96 257.55C495.83 257.87 495.76 258.21 495.76 258.55L495.76 280.81C495.76 281.15 495.82 281.49 495.95 281.81C496.09 282.12 496.28 282.41 496.52 282.65C496.76 282.89 497.05 283.08 497.36 283.21C497.68 283.34 498.02 283.41 498.36 283.41L520.62 283.41C520.96 283.41 521.3 283.34 521.61 283.21C521.93 283.08 522.21 282.89 522.46 282.65C522.7 282.41 522.89 282.12 523.02 281.8C523.15 281.49 523.22 281.15 523.22 280.81L523.22 258.55C523.22 258.21 523.15 257.87 523.02 257.56C522.89 257.24 522.7 256.95 522.45 256.71C522.21 256.47 521.93 256.28 521.61 256.15C521.3 256.02 520.96 255.95 520.62 255.95L520.62 255.95Z" />
	<path id="Layer" class="shp0" d="M520.62 293.9L498.36 293.9C498.02 293.9 497.68 293.97 497.36 294.1C497.05 294.23 496.76 294.42 496.52 294.66C496.28 294.9 496.09 295.19 495.96 295.5C495.83 295.82 495.76 296.16 495.76 296.5L495.76 318.76C495.76 319.1 495.82 319.44 495.95 319.76C496.09 320.07 496.28 320.36 496.52 320.6C496.76 320.84 497.05 321.03 497.36 321.16C497.68 321.29 498.02 321.36 498.36 321.36L520.62 321.36C520.96 321.36 521.3 321.29 521.61 321.16C521.93 321.03 522.21 320.84 522.46 320.6C522.7 320.36 522.89 320.07 523.02 319.75C523.15 319.44 523.22 319.1 523.22 318.76L523.22 296.5C523.22 296.16 523.15 295.82 523.02 295.51C522.89 295.19 522.7 294.9 522.45 294.66C522.21 294.42 521.93 294.23 521.61 294.1C521.3 293.97 520.96 293.9 520.62 293.9Z" />
	<path id="Layer" class="shp0" d="M520.62 331.85L498.36 331.85C498.02 331.85 497.68 331.92 497.36 332.05C497.05 332.18 496.76 332.37 496.52 332.61C496.28 332.85 496.09 333.14 495.95 333.45C495.82 333.77 495.76 334.11 495.76 334.45L495.76 356.71C495.76 357.05 495.82 357.39 495.95 357.71C496.09 358.02 496.28 358.31 496.52 358.55C496.76 358.79 497.05 358.98 497.36 359.11C497.68 359.24 498.02 359.31 498.36 359.31L520.62 359.31C520.96 359.31 521.3 359.24 521.61 359.11C521.93 358.98 522.21 358.79 522.46 358.55C522.7 358.31 522.89 358.02 523.02 357.7C523.15 357.39 523.22 357.05 523.22 356.71L523.22 334.45C523.22 334.11 523.15 333.77 523.02 333.45C522.89 333.14 522.7 332.85 522.46 332.61C522.21 332.37 521.93 332.18 521.61 332.05C521.3 331.92 520.96 331.85 520.62 331.85L520.62 331.85Z" />
	<path id="Layer" class="shp0" d="M567.38 180.05L545.12 180.05C544.78 180.05 544.44 180.12 544.12 180.25C543.81 180.38 543.52 180.57 543.28 180.81C543.04 181.05 542.85 181.34 542.72 181.65C542.59 181.97 542.52 182.31 542.52 182.65L542.52 204.92C542.52 205.26 542.59 205.6 542.72 205.91C542.85 206.23 543.04 206.51 543.28 206.75C543.52 206.99 543.81 207.18 544.12 207.31C544.44 207.44 544.78 207.51 545.12 207.51L567.38 207.51C567.72 207.51 568.06 207.44 568.37 207.31C568.69 207.18 568.97 206.99 569.21 206.75C569.45 206.51 569.65 206.23 569.78 205.91C569.91 205.6 569.98 205.26 569.98 204.92L569.98 182.65C569.98 182.31 569.91 181.97 569.78 181.66C569.65 181.34 569.46 181.05 569.21 180.81C568.97 180.57 568.69 180.38 568.37 180.25C568.06 180.12 567.72 180.05 567.38 180.05L567.38 180.05Z" />
	<path id="Layer" class="shp1" d="M567.38 218L545.12 218C544.78 218 544.44 218.07 544.12 218.2C543.81 218.33 543.52 218.52 543.28 218.76C543.04 219 542.85 219.29 542.72 219.6C542.59 219.92 542.52 220.26 542.52 220.6L542.52 242.87C542.52 243.21 542.59 243.55 542.72 243.86C542.85 244.18 543.04 244.46 543.28 244.7C543.52 244.94 543.81 245.13 544.12 245.26C544.44 245.39 544.78 245.46 545.12 245.46L567.38 245.46C567.72 245.46 568.06 245.39 568.37 245.26C568.69 245.13 568.97 244.94 569.21 244.7C569.45 244.46 569.65 244.18 569.78 243.86C569.91 243.55 569.98 243.21 569.98 242.87L569.98 220.6C569.98 220.26 569.91 219.92 569.78 219.61C569.65 219.29 569.46 219 569.21 218.76C568.97 218.52 568.69 218.33 568.37 218.2C568.06 218.07 567.72 218 567.38 218L567.38 218Z" />
	<path id="Layer" class="shp1" d="M567.38 255.95L545.12 255.95C544.78 255.95 544.44 256.02 544.12 256.15C543.81 256.28 543.52 256.47 543.28 256.71C543.04 256.95 542.85 257.24 542.72 257.55C542.59 257.87 542.52 258.21 542.52 258.55L542.52 280.81C542.52 281.15 542.58 281.49 542.71 281.81C542.84 282.12 543.04 282.41 543.28 282.65C543.52 282.89 543.81 283.08 544.12 283.21C544.44 283.34 544.78 283.41 545.12 283.41L567.38 283.41C567.72 283.41 568.06 283.34 568.37 283.21C568.69 283.08 568.97 282.89 569.22 282.65C569.46 282.41 569.65 282.12 569.78 281.8C569.91 281.49 569.98 281.15 569.98 280.81L569.98 258.55C569.98 258.21 569.91 257.87 569.78 257.56C569.65 257.24 569.46 256.95 569.21 256.71C568.97 256.47 568.69 256.28 568.37 256.15C568.06 256.02 567.72 255.95 567.38 255.95L567.38 255.95Z" />
	<path id="Layer" class="shp2" d="M567.38 293.9L545.12 293.9C544.78 293.9 544.44 293.97 544.12 294.1C543.81 294.23 543.52 294.42 543.28 294.66C543.04 294.9 542.85 295.19 542.72 295.5C542.59 295.82 542.52 296.16 542.52 296.5L542.52 318.76C542.52 319.1 542.58 319.44 542.71 319.76C542.84 320.07 543.04 320.36 543.28 320.6C543.52 320.84 543.81 321.03 544.12 321.16C544.44 321.29 544.78 321.36 545.12 321.36L567.38 321.36C567.72 321.36 568.06 321.29 568.37 321.16C568.69 321.03 568.97 320.84 569.22 320.6C569.46 320.36 569.65 320.07 569.78 319.75C569.91 319.44 569.98 319.1 569.98 318.76L569.98 296.5C569.98 296.16 569.91 295.82 569.78 295.51C569.65 295.19 569.46 294.9 569.21 294.66C568.97 294.42 568.69 294.23 568.37 294.1C568.06 293.97 567.72 293.9 567.38 293.9Z" />
	<path id="Layer" class="shp0" d="M567.38 331.85L545.12 331.85C544.78 331.85 544.44 331.92 544.12 332.05C543.81 332.18 543.52 332.37 543.28 332.61C543.04 332.85 542.84 333.14 542.71 333.45C542.58 333.77 542.52 334.11 542.52 334.45L542.52 356.71C542.52 357.05 542.58 357.39 542.71 357.71C542.84 358.02 543.04 358.31 543.28 358.55C543.52 358.79 543.81 358.98 544.12 359.11C544.44 359.24 544.78 359.31 545.12 359.31L567.38 359.31C567.72 359.31 568.06 359.24 568.37 359.11C568.69 358.98 568.97 358.79 569.22 358.55C569.46 358.31 569.65 358.02 569.78 357.7C569.91 357.39 569.98 357.05 569.98 356.71L569.98 334.45C569.98 334.11 569.91 333.77 569.78 333.45C569.65 333.14 569.46 332.85 569.22 332.61C568.97 332.37 568.69 332.18 568.37 332.05C568.06 331.92 567.72 331.85 567.38 331.85L567.38 331.85Z" />
	<path id="Layer" class="shp1" d="M614.14 180.05L591.87 180.05C591.53 180.05 591.19 180.12 590.88 180.25C590.56 180.38 590.28 180.57 590.04 180.81C589.8 181.06 589.6 181.34 589.47 181.66C589.34 181.97 589.28 182.31 589.28 182.65L589.28 204.92C589.28 205.26 589.35 205.6 589.48 205.91C589.61 206.22 589.8 206.51 590.04 206.75C590.28 206.99 590.56 207.18 590.88 207.31C591.19 207.44 591.53 207.51 591.87 207.51L614.14 207.51C614.48 207.51 614.82 207.44 615.13 207.31C615.45 207.18 615.73 206.99 615.97 206.75C616.21 206.51 616.41 206.23 616.54 205.91C616.67 205.6 616.74 205.26 616.74 204.92L616.74 182.65C616.74 182.31 616.67 181.97 616.54 181.66C616.41 181.34 616.22 181.05 615.97 180.81C615.73 180.57 615.45 180.38 615.13 180.25C614.82 180.12 614.48 180.05 614.14 180.05L614.14 180.05Z" />
	<path id="Layer" class="shp1" d="M614.14 218L591.87 218C591.53 218 591.19 218.07 590.88 218.2C590.56 218.33 590.28 218.52 590.04 218.76C589.8 219.01 589.6 219.29 589.47 219.61C589.34 219.92 589.28 220.26 589.28 220.6L589.28 242.87C589.28 243.21 589.35 243.55 589.48 243.86C589.61 244.17 589.8 244.46 590.04 244.7C590.28 244.94 590.56 245.13 590.88 245.26C591.19 245.39 591.53 245.46 591.87 245.46L614.14 245.46C614.48 245.46 614.82 245.39 615.13 245.26C615.45 245.13 615.73 244.94 615.97 244.7C616.21 244.46 616.41 244.18 616.54 243.86C616.67 243.55 616.74 243.21 616.74 242.87L616.74 220.6C616.74 220.26 616.67 219.92 616.54 219.61C616.41 219.29 616.22 219 615.97 218.76C615.73 218.52 615.45 218.33 615.13 218.2C614.82 218.07 614.48 218 614.14 218L614.14 218Z" />
	<path id="Layer" class="shp1" d="M614.14 255.95L591.87 255.95C591.53 255.95 591.19 256.02 590.88 256.15C590.56 256.28 590.28 256.47 590.04 256.71C589.8 256.96 589.6 257.24 589.47 257.56C589.34 257.87 589.28 258.21 589.28 258.55L589.28 280.81C589.28 281.15 589.34 281.49 589.47 281.8C589.6 282.12 589.79 282.41 590.03 282.65C590.27 282.89 590.56 283.08 590.87 283.21C591.19 283.34 591.53 283.41 591.87 283.41L614.14 283.41C614.48 283.41 614.82 283.34 615.13 283.21C615.45 283.08 615.73 282.89 615.98 282.65C616.22 282.41 616.41 282.12 616.54 281.8C616.67 281.49 616.74 281.15 616.74 280.81L616.74 258.55C616.74 258.21 616.67 257.87 616.54 257.56C616.41 257.24 616.22 256.95 615.97 256.71C615.73 256.47 615.45 256.28 615.13 256.15C614.82 256.02 614.48 255.95 614.14 255.95L614.14 255.95Z" />
	<path id="Layer" class="shp0" d="M614.14 293.9L591.87 293.9C591.53 293.9 591.19 293.97 590.88 294.1C590.56 294.23 590.28 294.42 590.04 294.66C589.8 294.91 589.6 295.19 589.47 295.51C589.34 295.82 589.28 296.16 589.28 296.5L589.28 318.76C589.28 319.1 589.34 319.44 589.47 319.75C589.6 320.07 589.79 320.36 590.03 320.6C590.27 320.84 590.56 321.03 590.87 321.16C591.19 321.29 591.53 321.36 591.87 321.36L614.14 321.36C614.48 321.36 614.82 321.29 615.13 321.16C615.45 321.03 615.73 320.84 615.98 320.6C616.22 320.36 616.41 320.07 616.54 319.75C616.67 319.44 616.74 319.1 616.74 318.76L616.74 296.5C616.74 296.16 616.67 295.82 616.54 295.51C616.41 295.19 616.22 294.9 615.97 294.66C615.73 294.42 615.45 294.23 615.13 294.1C614.82 293.97 614.48 293.9 614.14 293.9Z" />
	<path id="Layer" class="shp2" d="M614.14 331.85L591.87 331.85C591.53 331.85 591.19 331.92 590.87 332.05C590.56 332.18 590.27 332.37 590.03 332.61C589.79 332.85 589.6 333.14 589.47 333.46C589.34 333.77 589.28 334.11 589.28 334.45L589.28 356.71C589.28 357.05 589.34 357.39 589.47 357.7C589.6 358.02 589.79 358.31 590.03 358.55C590.27 358.79 590.56 358.98 590.87 359.11C591.19 359.24 591.53 359.31 591.87 359.31L614.14 359.31C614.48 359.31 614.82 359.24 615.13 359.11C615.45 358.98 615.73 358.79 615.98 358.55C616.22 358.31 616.41 358.02 616.54 357.7C616.67 357.39 616.74 357.05 616.74 356.71L616.74 334.45C616.74 334.11 616.67 333.77 616.54 333.45C616.41 333.14 616.22 332.85 615.98 332.61C615.73 332.37 615.45 332.18 615.13 332.05C614.82 331.92 614.48 331.85 614.14 331.85L614.14 331.85Z" />
	<path id="Layer" class="shp1" d="M660.9 180.05L638.63 180.05C638.29 180.05 637.95 180.12 637.64 180.25C637.32 180.38 637.04 180.57 636.8 180.81C636.56 181.06 636.36 181.34 636.23 181.66C636.1 181.97 636.04 182.31 636.04 182.65L636.04 204.92C636.04 205.26 636.11 205.6 636.24 205.91C636.37 206.22 636.56 206.51 636.8 206.75C637.04 206.99 637.32 207.18 637.64 207.31C637.95 207.44 638.29 207.51 638.63 207.51L660.9 207.51C661.24 207.51 661.58 207.44 661.89 207.31C662.21 207.18 662.49 206.99 662.73 206.75C662.97 206.51 663.17 206.23 663.3 205.91C663.43 205.6 663.5 205.26 663.5 204.92L663.5 182.65C663.5 182.31 663.43 181.97 663.3 181.66C663.17 181.34 662.98 181.05 662.73 180.81C662.49 180.57 662.21 180.38 661.89 180.25C661.58 180.12 661.24 180.05 660.9 180.05L660.9 180.05Z" />
	<path id="Layer" class="shp1" d="M660.9 218L638.63 218C638.29 218 637.95 218.07 637.64 218.2C637.32 218.33 637.04 218.52 636.8 218.76C636.56 219.01 636.36 219.29 636.23 219.61C636.1 219.92 636.04 220.26 636.04 220.6L636.04 242.87C636.04 243.21 636.11 243.55 636.24 243.86C636.37 244.17 636.56 244.46 636.8 244.7C637.04 244.94 637.32 245.13 637.64 245.26C637.95 245.39 638.29 245.46 638.63 245.46L660.9 245.46C661.24 245.46 661.58 245.39 661.89 245.26C662.21 245.13 662.49 244.94 662.73 244.7C662.97 244.46 663.17 244.18 663.3 243.86C663.43 243.55 663.5 243.21 663.5 242.87L663.5 220.6C663.5 220.26 663.43 219.92 663.3 219.61C663.17 219.29 662.98 219 662.73 218.76C662.49 218.52 662.21 218.33 661.89 218.2C661.58 218.07 661.24 218 660.9 218Z" />
	<path id="Layer" class="shp0" d="M660.9 255.95L638.63 255.95C638.29 255.95 637.95 256.02 637.64 256.15C637.32 256.28 637.04 256.47 636.8 256.71C636.56 256.96 636.36 257.24 636.23 257.56C636.1 257.87 636.04 258.21 636.04 258.55L636.04 280.81C636.04 281.15 636.1 281.49 636.23 281.8C636.36 282.12 636.55 282.41 636.79 282.65C637.03 282.89 637.32 283.08 637.63 283.21C637.95 283.34 638.29 283.41 638.63 283.41L660.9 283.41C661.24 283.41 661.58 283.34 661.89 283.21C662.21 283.08 662.49 282.89 662.74 282.65C662.98 282.41 663.17 282.12 663.3 281.8C663.43 281.49 663.5 281.15 663.5 280.81L663.5 258.55C663.5 258.21 663.43 257.87 663.3 257.56C663.17 257.24 662.98 256.95 662.73 256.71C662.49 256.47 662.21 256.28 661.89 256.15C661.58 256.02 661.24 255.95 660.9 255.95Z" />
	<path id="Layer" class="shp2" d="M660.9 293.9L638.63 293.9C638.29 293.9 637.95 293.97 637.64 294.1C637.32 294.23 637.04 294.42 636.8 294.66C636.56 294.91 636.36 295.19 636.23 295.51C636.1 295.82 636.04 296.16 636.04 296.5L636.04 318.76C636.04 319.1 636.1 319.44 636.23 319.75C636.36 320.07 636.55 320.36 636.79 320.6C637.03 320.84 637.32 321.03 637.63 321.16C637.95 321.29 638.29 321.36 638.63 321.36L660.9 321.36C661.24 321.36 661.58 321.29 661.89 321.16C662.21 321.03 662.49 320.84 662.74 320.6C662.98 320.36 663.17 320.07 663.3 319.75C663.43 319.44 663.5 319.1 663.5 318.76L663.5 296.5C663.5 296.16 663.43 295.82 663.3 295.51C663.17 295.19 662.98 294.9 662.73 294.66C662.49 294.42 662.21 294.23 661.89 294.1C661.58 293.97 661.24 293.9 660.9 293.9L660.9 293.9Z" />
	<path id="Layer" class="shp1" d="M660.9 331.85L638.63 331.85C638.29 331.85 637.95 331.92 637.63 332.05C637.32 332.18 637.03 332.37 636.79 332.61C636.55 332.85 636.36 333.14 636.23 333.46C636.1 333.77 636.04 334.11 636.04 334.45L636.04 356.71C636.04 357.05 636.1 357.39 636.23 357.7C636.36 358.02 636.55 358.31 636.79 358.55C637.03 358.79 637.32 358.98 637.63 359.11C637.95 359.24 638.29 359.31 638.63 359.31L660.9 359.31C661.24 359.31 661.58 359.24 661.89 359.11C662.21 358.98 662.49 358.79 662.74 358.55C662.98 358.31 663.17 358.02 663.3 357.7C663.43 357.39 663.5 357.05 663.5 356.71L663.5 334.45C663.5 334.11 663.43 333.77 663.3 333.45C663.17 333.14 662.98 332.85 662.74 332.61C662.49 332.37 662.21 332.18 661.89 332.05C661.58 331.92 661.24 331.85 660.9 331.85Z" />
	<path id="Layer" class="shp0" d="M707.66 180.05L685.39 180.05C685.05 180.05 684.71 180.12 684.4 180.25C684.08 180.38 683.8 180.57 683.56 180.81C683.32 181.06 683.12 181.34 682.99 181.66C682.86 181.97 682.8 182.31 682.8 182.65L682.8 204.92C682.8 205.26 682.87 205.6 683 205.91C683.13 206.22 683.32 206.51 683.56 206.75C683.8 206.99 684.08 207.18 684.4 207.31C684.71 207.44 685.05 207.51 685.39 207.51L707.66 207.51C708 207.51 708.34 207.44 708.65 207.31C708.97 207.18 709.25 206.99 709.49 206.75C709.73 206.51 709.93 206.23 710.06 205.91C710.19 205.6 710.26 205.26 710.26 204.92L710.26 182.65C710.26 182.31 710.19 181.97 710.06 181.66C709.93 181.34 709.74 181.05 709.49 180.81C709.25 180.57 708.97 180.38 708.65 180.25C708.34 180.12 708 180.05 707.66 180.05L707.66 180.05Z" />
	<path id="Layer" class="shp0" d="M707.66 218L685.39 218C685.05 218 684.71 218.07 684.4 218.2C684.08 218.33 683.8 218.52 683.56 218.76C683.32 219.01 683.12 219.29 682.99 219.61C682.86 219.92 682.8 220.26 682.8 220.6L682.8 242.87C682.8 243.21 682.87 243.55 683 243.86C683.13 244.17 683.32 244.46 683.56 244.7C683.8 244.94 684.08 245.13 684.4 245.26C684.71 245.39 685.05 245.46 685.39 245.46L707.66 245.46C708 245.46 708.34 245.39 708.65 245.26C708.97 245.13 709.25 244.94 709.49 244.7C709.73 244.46 709.93 244.18 710.06 243.86C710.19 243.55 710.26 243.21 710.26 242.87L710.26 220.6C710.26 220.26 710.19 219.92 710.06 219.61C709.93 219.29 709.74 219 709.49 218.76C709.25 218.52 708.97 218.33 708.65 218.2C708.34 218.07 708 218 707.66 218Z" />
	<path id="Layer" class="shp2" d="M707.66 255.95L685.39 255.95C685.05 255.95 684.71 256.02 684.4 256.15C684.08 256.28 683.8 256.47 683.56 256.71C683.32 256.96 683.12 257.24 682.99 257.56C682.86 257.87 682.8 258.21 682.8 258.55L682.8 280.81C682.8 281.15 682.86 281.49 682.99 281.8C683.12 282.12 683.31 282.41 683.55 282.65C683.79 282.89 684.08 283.08 684.39 283.21C684.71 283.34 685.05 283.41 685.39 283.41L707.66 283.41C708 283.41 708.34 283.34 708.65 283.21C708.97 283.08 709.25 282.89 709.5 282.65C709.74 282.41 709.93 282.12 710.06 281.8C710.19 281.49 710.26 281.15 710.26 280.81L710.26 258.55C710.26 258.21 710.19 257.87 710.06 257.56C709.93 257.24 709.74 256.95 709.49 256.71C709.25 256.47 708.97 256.28 708.65 256.15C708.34 256.02 708 255.95 707.66 255.95Z" />
	<path id="Layer" class="shp1" d="M707.66 293.9L685.39 293.9C685.05 293.9 684.71 293.97 684.4 294.1C684.08 294.23 683.8 294.42 683.56 294.66C683.32 294.91 683.12 295.19 682.99 295.51C682.86 295.82 682.8 296.16 682.8 296.5L682.8 318.76C682.8 319.1 682.86 319.44 682.99 319.75C683.12 320.07 683.31 320.36 683.55 320.6C683.79 320.84 684.08 321.03 684.39 321.16C684.71 321.29 685.05 321.36 685.39 321.36L707.66 321.36C708 321.36 708.34 321.29 708.65 321.16C708.97 321.03 709.25 320.84 709.5 320.6C709.74 320.36 709.93 320.07 710.06 319.75C710.19 319.44 710.26 319.1 710.26 318.76L710.26 296.5C710.26 296.16 710.19 295.82 710.06 295.51C709.93 295.19 709.74 294.9 709.49 294.66C709.25 294.42 708.97 294.23 708.65 294.1C708.34 293.97 708 293.9 707.66 293.9L707.66 293.9Z" />
	<path id="Layer" class="shp0" d="M707.66 331.85L685.39 331.85C685.05 331.85 684.71 331.92 684.39 332.05C684.08 332.18 683.79 332.37 683.55 332.61C683.31 332.85 683.12 333.14 682.99 333.46C682.86 333.77 682.8 334.11 682.8 334.45L682.8 356.71C682.8 357.05 682.86 357.39 682.99 357.7C683.12 358.02 683.31 358.31 683.55 358.55C683.79 358.79 684.08 358.98 684.39 359.11C684.71 359.24 685.05 359.31 685.39 359.31L707.66 359.31C708 359.31 708.34 359.24 708.65 359.11C708.97 358.98 709.25 358.79 709.5 358.55C709.74 358.31 709.93 358.02 710.06 357.7C710.19 357.39 710.26 357.05 710.26 356.71L710.26 334.45C710.26 334.11 710.19 333.77 710.06 333.45C709.93 333.14 709.74 332.85 709.5 332.61C709.25 332.37 708.97 332.18 708.65 332.05C708.34 331.92 708 331.85 707.66 331.85Z" />
	<path id="Layer" class="shp0" d="M754.42 180.05L732.15 180.05C731.81 180.05 731.47 180.12 731.16 180.25C730.84 180.38 730.56 180.57 730.32 180.81C730.08 181.06 729.88 181.34 729.75 181.66C729.62 181.97 729.56 182.31 729.56 182.65L729.56 204.92C729.56 205.26 729.63 205.6 729.76 205.91C729.89 206.22 730.08 206.51 730.32 206.75C730.56 206.99 730.84 207.18 731.16 207.31C731.47 207.44 731.81 207.51 732.15 207.51L754.42 207.51C754.76 207.51 755.1 207.44 755.41 207.31C755.73 207.18 756.01 206.99 756.25 206.75C756.49 206.51 756.69 206.23 756.82 205.91C756.95 205.6 757.02 205.26 757.02 204.92L757.02 182.65C757.02 182.31 756.95 181.97 756.82 181.66C756.69 181.34 756.5 181.05 756.25 180.81C756.01 180.57 755.73 180.38 755.41 180.25C755.1 180.12 754.76 180.05 754.42 180.05Z" />
	<path id="Layer" class="shp0" d="M754.42 218L732.15 218C731.81 218 731.47 218.07 731.16 218.2C730.84 218.33 730.56 218.52 730.32 218.76C730.08 219.01 729.88 219.29 729.75 219.61C729.62 219.92 729.56 220.26 729.56 220.6L729.56 242.87C729.56 243.21 729.63 243.55 729.76 243.86C729.89 244.17 730.08 244.46 730.32 244.7C730.56 244.94 730.84 245.13 731.16 245.26C731.47 245.39 731.81 245.46 732.15 245.46L754.42 245.46C754.76 245.46 755.1 245.39 755.41 245.26C755.73 245.13 756.01 244.94 756.25 244.7C756.49 244.46 756.69 244.18 756.82 243.86C756.95 243.55 757.02 243.21 757.02 242.87L757.02 220.6C757.02 220.26 756.95 219.92 756.82 219.61C756.69 219.29 756.5 219 756.25 218.76C756.01 218.52 755.73 218.33 755.41 218.2C755.1 218.07 754.76 218 754.42 218L754.42 218Z" />
	<path id="Layer" class="shp2" d="M754.42 255.95L732.15 255.95C731.81 255.95 731.47 256.02 731.16 256.15C730.84 256.28 730.56 256.47 730.32 256.71C730.08 256.96 729.88 257.24 729.75 257.56C729.62 257.87 729.56 258.21 729.56 258.55L729.56 280.81C729.56 281.15 729.62 281.49 729.75 281.8C729.88 282.12 730.07 282.41 730.31 282.65C730.55 282.89 730.84 283.08 731.15 283.21C731.47 283.34 731.81 283.41 732.15 283.41L754.42 283.41C754.76 283.41 755.1 283.34 755.41 283.21C755.73 283.08 756.01 282.89 756.26 282.65C756.5 282.41 756.69 282.12 756.82 281.8C756.95 281.49 757.02 281.15 757.02 280.81L757.02 258.55C757.02 258.21 756.95 257.87 756.82 257.56C756.69 257.24 756.5 256.95 756.25 256.71C756.01 256.47 755.73 256.28 755.41 256.15C755.1 256.02 754.76 255.95 754.42 255.95L754.42 255.95Z" />
	<path id="Layer" class="shp0" d="M754.42 293.9L732.15 293.9C731.81 293.9 731.47 293.97 731.16 294.1C730.84 294.23 730.56 294.42 730.32 294.66C730.08 294.91 729.88 295.19 729.75 295.51C729.62 295.82 729.56 296.16 729.56 296.5L729.56 318.76C729.56 319.1 729.62 319.44 729.75 319.75C729.88 320.07 730.07 320.36 730.31 320.6C730.55 320.84 730.84 321.03 731.15 321.16C731.47 321.29 731.81 321.36 732.15 321.36L754.42 321.36C754.76 321.36 755.1 321.29 755.41 321.16C755.73 321.03 756.01 320.84 756.26 320.6C756.5 320.36 756.69 320.07 756.82 319.75C756.95 319.44 757.02 319.1 757.02 318.76L757.02 296.5C757.02 296.16 756.95 295.82 756.82 295.51C756.69 295.19 756.5 294.9 756.25 294.66C756.01 294.42 755.73 294.23 755.41 294.1C755.1 293.97 754.76 293.9 754.42 293.9L754.42 293.9Z" />
	<path id="Layer" class="shp0" d="M754.42 331.85L732.15 331.85C731.81 331.85 731.47 331.92 731.15 332.05C730.84 332.18 730.55 332.37 730.31 332.61C730.07 332.85 729.88 333.14 729.75 333.46C729.62 333.77 729.56 334.11 729.56 334.45L729.56 356.71C729.56 357.05 729.62 357.39 729.75 357.7C729.88 358.02 730.07 358.31 730.31 358.55C730.55 358.79 730.84 358.98 731.15 359.11C731.47 359.24 731.81 359.31 732.15 359.31L754.42 359.31C754.76 359.31 755.1 359.24 755.41 359.11C755.73 358.98 756.01 358.79 756.26 358.55C756.5 358.31 756.69 358.02 756.82 357.7C756.95 357.39 757.02 357.05 757.02 356.71L757.02 334.45C757.02 334.11 756.95 333.77 756.82 333.45C756.69 333.14 756.5 332.85 756.26 332.61C756.01 332.37 755.73 332.18 755.41 332.05C755.1 331.92 754.76 331.85 754.42 331.85L754.42 331.85Z" />
	<path id="Layer" class="shp2" d="M801.18 180.05L778.91 180.05C778.57 180.05 778.23 180.12 777.92 180.25C777.6 180.38 777.32 180.57 777.08 180.81C776.84 181.06 776.64 181.34 776.51 181.66C776.38 181.97 776.32 182.31 776.32 182.65L776.32 204.92C776.32 205.26 776.39 205.6 776.52 205.91C776.65 206.22 776.84 206.51 777.08 206.75C777.32 206.99 777.6 207.18 777.92 207.31C778.23 207.44 778.57 207.51 778.91 207.51L801.18 207.51C801.52 207.51 801.86 207.44 802.17 207.31C802.49 207.18 802.77 206.99 803.01 206.75C803.25 206.51 803.45 206.23 803.58 205.91C803.71 205.6 803.78 205.26 803.78 204.92L803.78 182.65C803.78 182.31 803.71 181.97 803.58 181.66C803.45 181.34 803.26 181.05 803.01 180.81C802.77 180.57 802.49 180.38 802.17 180.25C801.86 180.12 801.52 180.05 801.18 180.05Z" />
	<path id="Layer" class="shp0" d="M801.18 218L778.91 218C778.57 218 778.23 218.07 777.92 218.2C777.6 218.33 777.32 218.52 777.08 218.76C776.84 219.01 776.64 219.29 776.51 219.61C776.38 219.92 776.32 220.26 776.32 220.6L776.32 242.87C776.32 243.21 776.39 243.55 776.52 243.86C776.65 244.17 776.84 244.46 777.08 244.7C777.32 244.94 777.6 245.13 777.92 245.26C778.23 245.39 778.57 245.46 778.91 245.46L801.18 245.46C801.52 245.46 801.86 245.39 802.17 245.26C802.49 245.13 802.77 244.94 803.01 244.7C803.25 244.46 803.45 244.18 803.58 243.86C803.71 243.55 803.78 243.21 803.78 242.87L803.78 220.6C803.78 220.26 803.71 219.92 803.58 219.61C803.45 219.29 803.26 219 803.01 218.76C802.77 218.52 802.49 218.33 802.17 218.2C801.86 218.07 801.52 218 801.18 218L801.18 218Z" />
	<path id="Layer" class="shp0" d="M801.18 255.95L778.91 255.95C778.57 255.95 778.23 256.02 777.92 256.15C777.6 256.28 777.32 256.47 777.08 256.71C776.84 256.96 776.64 257.24 776.51 257.56C776.38 257.87 776.32 258.21 776.32 258.55L776.32 280.81C776.32 281.15 776.38 281.49 776.51 281.8C776.64 282.12 776.83 282.41 777.07 282.65C777.31 282.89 777.6 283.08 777.91 283.21C778.23 283.34 778.57 283.41 778.91 283.41L801.18 283.41C801.52 283.41 801.86 283.34 802.17 283.21C802.49 283.08 802.77 282.89 803.02 282.65C803.26 282.41 803.45 282.12 803.58 281.8C803.71 281.49 803.78 281.15 803.78 280.81L803.78 258.55C803.78 258.21 803.71 257.87 803.58 257.56C803.45 257.24 803.26 256.95 803.01 256.71C802.77 256.47 802.49 256.28 802.17 256.15C801.86 256.02 801.52 255.95 801.18 255.95L801.18 255.95Z" />
	<path id="Layer" class="shp0" d="M801.18 293.9L778.91 293.9C778.57 293.9 778.23 293.97 777.92 294.1C777.6 294.23 777.32 294.42 777.08 294.66C776.84 294.91 776.64 295.19 776.51 295.51C776.38 295.82 776.32 296.16 776.32 296.5L776.32 318.76C776.32 319.1 776.38 319.44 776.51 319.75C776.64 320.07 776.83 320.36 777.07 320.6C777.31 320.84 777.6 321.03 777.91 321.16C778.23 321.29 778.57 321.36 778.91 321.36L801.18 321.36C801.52 321.36 801.86 321.29 802.17 321.16C802.49 321.03 802.77 320.84 803.02 320.6C803.26 320.36 803.45 320.07 803.58 319.75C803.71 319.44 803.78 319.1 803.78 318.76L803.78 296.5C803.78 296.16 803.71 295.82 803.58 295.51C803.45 295.19 803.26 294.9 803.01 294.66C802.77 294.42 802.49 294.23 802.17 294.1C801.86 293.97 801.52 293.9 801.18 293.9L801.18 293.9Z" />
	<path id="Layer" class="shp2" d="M801.18 331.85L778.91 331.85C778.57 331.85 778.23 331.92 777.91 332.05C777.6 332.18 777.31 332.37 777.07 332.61C776.83 332.85 776.64 333.14 776.51 333.46C776.38 333.77 776.32 334.11 776.32 334.45L776.32 356.71C776.32 357.05 776.38 357.39 776.51 357.7C776.64 358.02 776.83 358.31 777.07 358.55C777.31 358.79 777.6 358.98 777.91 359.11C778.23 359.24 778.57 359.31 778.91 359.31L801.18 359.31C801.52 359.31 801.86 359.24 802.17 359.11C802.49 358.98 802.77 358.79 803.02 358.55C803.26 358.31 803.45 358.02 803.58 357.7C803.71 357.39 803.78 357.05 803.78 356.71L803.78 334.45C803.78 334.11 803.71 333.77 803.58 333.45C803.45 333.14 803.26 332.85 803.02 332.61C802.77 332.37 802.49 332.18 802.17 332.05C801.86 331.92 801.52 331.85 801.18 331.85L801.18 331.85Z" />
	<path id="Layer" class="shp2" d="M847.94 180.05L825.67 180.05C825.33 180.05 824.99 180.12 824.68 180.25C824.36 180.38 824.08 180.57 823.84 180.81C823.6 181.06 823.4 181.34 823.27 181.66C823.14 181.97 823.08 182.31 823.08 182.65L823.08 204.92C823.08 205.26 823.15 205.6 823.28 205.91C823.41 206.22 823.6 206.51 823.84 206.75C824.08 206.99 824.36 207.18 824.68 207.31C824.99 207.44 825.33 207.51 825.67 207.51L847.94 207.51C848.28 207.51 848.62 207.44 848.93 207.31C849.25 207.18 849.53 206.99 849.77 206.75C850.01 206.51 850.21 206.23 850.34 205.91C850.47 205.6 850.54 205.26 850.54 204.92L850.54 182.65C850.54 182.31 850.47 181.97 850.34 181.66C850.21 181.34 850.02 181.05 849.77 180.81C849.53 180.57 849.25 180.38 848.93 180.25C848.62 180.12 848.28 180.05 847.94 180.05Z" />
	<path id="Layer" class="shp2" d="M847.94 218L825.67 218C825.33 218 824.99 218.07 824.68 218.2C824.36 218.33 824.08 218.52 823.84 218.76C823.6 219.01 823.4 219.29 823.27 219.61C823.14 219.92 823.08 220.26 823.08 220.6L823.08 242.87C823.08 243.21 823.15 243.55 823.28 243.86C823.41 244.17 823.6 244.46 823.84 244.7C824.08 244.94 824.36 245.13 824.68 245.26C824.99 245.39 825.33 245.46 825.67 245.46L847.94 245.46C848.28 245.46 848.62 245.39 848.93 245.26C849.25 245.13 849.53 244.94 849.77 244.7C850.01 244.46 850.21 244.18 850.34 243.86C850.47 243.55 850.54 243.21 850.54 242.87L850.54 220.6C850.54 220.26 850.47 219.92 850.34 219.61C850.21 219.29 850.02 219 849.77 218.76C849.53 218.52 849.25 218.33 848.93 218.2C848.62 218.07 848.28 218 847.94 218L847.94 218Z" />
	<path id="Layer" class="shp0" d="M847.94 255.95L825.67 255.95C825.33 255.95 824.99 256.02 824.68 256.15C824.36 256.28 824.08 256.47 823.84 256.71C823.6 256.96 823.4 257.24 823.27 257.56C823.14 257.87 823.08 258.21 823.08 258.55L823.08 280.81C823.08 281.15 823.14 281.49 823.27 281.8C823.4 282.12 823.59 282.41 823.83 282.65C824.07 282.89 824.36 283.08 824.67 283.21C824.99 283.34 825.33 283.41 825.67 283.41L847.94 283.41C848.28 283.41 848.62 283.34 848.93 283.21C849.25 283.08 849.53 282.89 849.78 282.65C850.02 282.41 850.21 282.12 850.34 281.8C850.47 281.49 850.54 281.15 850.54 280.81L850.54 258.55C850.54 258.21 850.47 257.87 850.34 257.56C850.21 257.24 850.02 256.95 849.77 256.71C849.53 256.47 849.25 256.28 848.93 256.15C848.62 256.02 848.28 255.95 847.94 255.95L847.94 255.95Z" />
	<path id="Layer" class="shp2" d="M847.94 293.9L825.67 293.9C825.33 293.9 824.99 293.97 824.68 294.1C824.36 294.23 824.08 294.42 823.84 294.66C823.6 294.91 823.4 295.19 823.27 295.51C823.14 295.82 823.08 296.16 823.08 296.5L823.08 318.76C823.08 319.1 823.14 319.44 823.27 319.75C823.4 320.07 823.59 320.36 823.83 320.6C824.07 320.84 824.36 321.03 824.67 321.16C824.99 321.29 825.33 321.36 825.67 321.36L847.94 321.36C848.28 321.36 848.62 321.29 848.93 321.16C849.25 321.03 849.53 320.84 849.78 320.6C850.02 320.36 850.21 320.07 850.34 319.75C850.47 319.44 850.54 319.1 850.54 318.76L850.54 296.5C850.54 296.16 850.47 295.82 850.34 295.51C850.21 295.19 850.02 294.9 849.77 294.66C849.53 294.42 849.25 294.23 848.93 294.1C848.62 293.97 848.28 293.9 847.94 293.9L847.94 293.9Z" />
	<path id="Layer" class="shp2" d="M847.94 331.85L825.67 331.85C825.33 331.85 824.99 331.92 824.67 332.05C824.36 332.18 824.07 332.37 823.83 332.61C823.59 332.85 823.4 333.14 823.27 333.46C823.14 333.77 823.08 334.11 823.08 334.45L823.08 356.71C823.08 357.05 823.14 357.39 823.27 357.7C823.4 358.02 823.59 358.31 823.83 358.55C824.07 358.79 824.36 358.98 824.67 359.11C824.99 359.24 825.33 359.31 825.67 359.31L847.94 359.31C848.28 359.31 848.62 359.24 848.93 359.11C849.25 358.98 849.53 358.79 849.78 358.55C850.02 358.31 850.21 358.02 850.34 357.7C850.47 357.39 850.54 357.05 850.54 356.71L850.54 334.45C850.54 334.11 850.47 333.77 850.34 333.45C850.21 333.14 850.02 332.85 849.78 332.61C849.53 332.37 849.25 332.18 848.93 332.05C848.62 331.92 848.28 331.85 847.94 331.85L847.94 331.85Z" />
	<path id="Layer" class="shp0" d="M336.1 660.05L335.48 660.05L336 659.98L336.1 660.05L336.1 660.05Z" />
	<path id="b6132315-04e2-4cdb-a713-107c9cd58b0b" class="shp3" d="M282.81 245.05C245.03 245.05 214.49 214.51 214.49 176.73C214.49 138.95 245.03 108.41 282.81 108.41C320.6 108.41 351.14 138.95 351.14 176.73C351.14 214.51 320.6 245.05 282.81 245.05Z" />
	<path id="f4304bdd-ba2d-4fff-b404-410205410c5d" class="shp4" d="M342.65 126.64C342.65 126.64 360.52 92.48 321.2 89.37C321.2 89.37 287.69 58.97 253.53 83.82C253.53 83.82 234.89 83.82 224.7 104.9C224.7 104.9 210.05 99.34 206.83 114.22C206.83 114.22 196.1 145.27 206.83 173.22C217.55 201.17 221.11 204.28 221.11 204.28C221.11 204.28 203.49 145.68 246.38 142.57C289.27 139.47 337.27 112.67 340.84 146.83C344.42 180.99 349.8 189.4 349.8 189.4C349.8 189.4 383.75 140.62 342.65 126.64Z" />
	<path id="Layer" class="shp5" d="M459.55 345.11L459.33 346.27L456.86 359.31L439.79 449.51L438.78 454.82L436.66 466.05L433.76 481.37L427.33 515.32L425.49 525.05L424.8 528.7L424.56 529.98L422.65 540.05L422.07 543.09L417.41 577.62L413.34 607.71L426.96 621.33L418.84 629.45L413.51 659.98L413.52 660.05L195.99 660.05C187.19 654.35 178.51 648.47 169.97 642.42L171.76 629.02C171.76 629.02 177.92 605.09 175.33 602.23C172.75 599.37 167.09 594.26 167.09 594.26L174.22 577.62L175.21 575.31L173.55 540.88L173.51 540.05L172.96 528.7L172.89 527.24L172.78 525.05L170.67 481.37L170.63 480.65L169.99 467.41L169.39 454.82L169.13 449.51L166.56 396.38L164.82 360.3L163.3 328.89L169.41 326.82L234.76 304.61L261.83 269.42L318.17 269.84L345.75 270.05L391.77 312.73L402.24 317.73L402.32 317.77L409.83 321.36L428.87 330.45L449 340.07L459.33 345L459.55 345.11Z" />
	<path id="Layer" class="shp3" d="M269.11 557.55C264.98 559.15 260.55 559.83 256.13 559.53C251.72 559.23 247.42 557.97 243.54 555.83C239.66 553.69 236.3 550.73 233.69 547.15C231.09 543.57 229.29 539.47 228.44 535.12L121.89 520L158.93 478.1L254.44 498.88C261.83 497.94 269.32 499.74 275.47 503.95C281.63 508.15 286.03 514.47 287.83 521.7C289.64 528.93 288.73 536.58 285.28 543.18C281.83 549.79 276.08 554.9 269.11 557.55L269.11 557.55Z" />
	<path id="Layer" class="shp5" d="M221.6 481.37C221.11 480.75 220.57 480.17 219.98 479.65C219.39 479.12 218.75 478.65 218.08 478.24C217.41 477.82 216.71 477.47 215.97 477.18C215.24 476.89 214.48 476.66 213.71 476.5L169.99 467.41L165.5 466.48C164.2 466.21 162.93 465.8 161.71 465.26C160.5 464.73 159.34 464.06 158.26 463.28C157.19 462.5 156.2 461.61 155.31 460.63C154.42 459.64 153.63 458.56 152.97 457.41C152.62 456.81 152.31 456.18 152.04 455.55C151.76 454.91 151.52 454.26 151.31 453.59C151.11 452.93 150.94 452.26 150.8 451.57C150.67 450.89 150.58 450.2 150.52 449.51C150.47 448.88 150.45 448.25 150.46 447.62C150.47 446.98 150.51 446.35 150.59 445.72C150.66 445.1 150.77 444.47 150.9 443.86C151.04 443.24 151.21 442.63 151.41 442.03L166.56 396.38L176.39 366.76C176.69 365.87 176.95 364.97 177.19 364.06C177.43 363.15 177.63 362.23 177.81 361.31C177.98 360.38 178.12 359.45 178.24 358.52C178.35 357.59 178.43 356.65 178.48 355.71C178.61 353.13 178.52 350.55 178.2 347.99C177.87 345.43 177.32 342.91 176.55 340.45C175.77 337.99 174.78 335.6 173.59 333.31C172.39 331.03 170.99 328.86 169.41 326.82C166.61 323.23 163.26 320.1 159.48 317.57C155.7 315.04 151.54 313.12 147.16 311.9C142.77 310.68 138.22 310.17 133.67 310.39C129.13 310.6 124.65 311.55 120.4 313.18C120.15 313.27 119.89 313.37 119.64 313.47C116.58 314.69 113.68 316.26 110.98 318.15C108.29 320.04 105.82 322.23 103.63 324.69C101.44 327.15 99.55 329.85 97.98 332.74C96.41 335.64 95.19 338.7 94.33 341.88L83.65 380.73L61.62 460.82C59.41 468.84 58.97 477.25 60.31 485.46C61.66 493.67 64.76 501.5 69.41 508.4C74.06 515.3 80.14 521.12 87.25 525.45C94.36 529.78 102.31 532.53 110.58 533.5L173.55 540.88L202.69 544.3C204.36 544.5 206.05 544.39 207.68 543.97C209.31 543.54 210.84 542.82 212.21 541.84C213.57 540.85 214.74 539.62 215.65 538.2C216.56 536.79 217.2 535.22 217.53 533.57C217.54 533.52 217.55 533.48 217.56 533.43C217.57 533.39 217.58 533.34 217.59 533.3C217.6 533.25 217.61 533.2 217.62 533.16C217.62 533.11 217.63 533.07 217.64 533.02L218.34 528.7L224.27 492.32L224.33 491.95C224.48 491.02 224.54 490.08 224.5 489.15C224.46 488.21 224.32 487.28 224.08 486.37C223.85 485.46 223.52 484.58 223.1 483.74C222.68 482.9 222.18 482.11 221.6 481.37Z" />
	<path id="Layer" class="shp3" d="M336.98 558.72C341.3 559.72 345.78 559.76 350.11 558.84C354.44 557.93 358.52 556.07 362.05 553.41C365.59 550.74 368.5 547.34 370.58 543.43C372.65 539.52 373.85 535.2 374.08 530.78L477.44 500.78L434.86 464.52L343.23 498.57C335.78 498.67 328.62 501.51 323.12 506.54C317.62 511.58 314.16 518.45 313.39 525.87C312.62 533.28 314.6 540.72 318.94 546.77C323.29 552.83 329.71 557.08 336.98 558.72L336.98 558.72Z" />
	<path id="Layer" class="shp5" d="M529.76 433.69L480.6 320.55C479.6 318.25 478.41 316.04 477.03 313.95C475.64 311.86 474.08 309.9 472.36 308.08C470.63 306.26 468.75 304.6 466.73 303.11C464.72 301.62 462.57 300.31 460.33 299.2C459.63 298.85 458.92 298.53 458.2 298.22C457.48 297.92 456.76 297.63 456.02 297.36C455.29 297.1 454.55 296.85 453.8 296.62C453.06 296.39 452.31 296.19 451.55 296C451.08 295.88 450.61 295.77 450.14 295.68C448.54 295.33 446.92 295.07 445.29 294.91C443.65 294.75 442.02 294.69 440.38 294.72C438.74 294.75 437.1 294.87 435.48 295.09C433.85 295.32 432.25 295.63 430.66 296.04C427.75 296.79 424.93 297.84 422.25 299.17C419.56 300.51 417.02 302.12 414.67 303.99C412.32 305.86 410.18 307.97 408.27 310.28C406.36 312.6 404.7 315.11 403.32 317.77C403.31 317.78 403.3 317.79 403.3 317.8C403.29 317.81 403.28 317.83 403.28 317.84C403.27 317.85 403.26 317.86 403.26 317.87C403.25 317.89 403.24 317.9 403.24 317.91C401.69 320.9 400.5 324.05 399.69 327.32C398.88 330.58 398.46 333.93 398.43 337.29C398.4 340.65 398.76 344.01 399.5 347.29C400.25 350.56 401.38 353.74 402.87 356.76L403.48 357.98L438.22 427.75C439.4 430.14 440.07 432.75 440.18 435.41C440.29 438.07 439.83 440.72 438.84 443.2C437.85 445.67 436.34 447.91 434.43 449.76C432.51 451.61 430.22 453.03 427.72 453.94L425.28 454.82L381.4 470.67C379.77 471.25 378.26 472.14 376.97 473.29C375.67 474.44 374.61 475.83 373.84 477.38C373.07 478.93 372.61 480.62 372.48 482.35C372.34 484.07 372.54 485.81 373.07 487.46L373.18 487.81L385.48 527.17C385.54 527.35 385.6 527.53 385.67 527.71C385.69 527.79 385.72 527.88 385.75 527.96C385.78 528.05 385.82 528.13 385.85 528.21C385.88 528.29 385.92 528.38 385.95 528.46C385.99 528.54 386.03 528.62 386.07 528.7C386.72 530.15 387.62 531.48 388.73 532.62C389.84 533.76 391.15 534.7 392.58 535.38C394.02 536.07 395.57 536.49 397.16 536.63C398.74 536.78 400.34 536.64 401.88 536.23L425.56 529.98L430.39 528.7L491.54 512.55C499.58 510.42 507.08 506.58 513.5 501.29C519.92 496 525.13 489.39 528.76 481.9C532.39 474.41 534.36 466.22 534.53 457.9C534.7 449.58 533.07 441.32 529.76 433.69L529.76 433.69Z" />
	<path id="Layer" class="shp6" d="M44.9 528.7C48.44 533.02 52.05 537.28 55.73 541.48C59.41 545.68 63.16 549.83 66.98 553.91C70.79 557.99 74.67 562 78.62 565.96C82.56 569.91 86.58 573.8 90.65 577.62L542.62 577.62C544.77 577.62 546.91 578.05 548.9 578.88C550.89 579.7 552.7 580.91 554.22 582.44C555.75 583.97 556.96 585.78 557.78 587.77C558.61 589.76 559.04 591.89 559.04 594.05L559.69 708.58C566.63 705.39 573.47 701.98 580.19 698.35C586.91 694.72 593.52 690.87 599.99 686.82C606.46 682.76 612.81 678.5 619.01 674.03C625.21 669.57 631.26 664.9 637.16 660.05C643.72 654.66 650.07 649.04 656.23 643.18C660.26 639.36 664.19 635.45 668.03 631.44C675.2 623.97 682.05 616.18 688.54 608.11C695.03 600.04 701.17 591.69 706.94 583.08C712.7 574.48 718.09 565.62 723.08 556.55C728.07 547.47 732.67 538.18 736.85 528.7L44.9 528.7Z" />
	<path id="Layer" class="shp1" d="M668.03 631.44C664.2 635.45 660.26 639.36 656.23 643.18L560.02 643.18L560.02 631.44L668.03 631.44Z" />
	<path id="Layer" class="shp6" d="M458.65 255.95C458.41 255.51 458.12 255.11 457.77 254.75C457.43 254.39 457.04 254.08 456.61 253.83C456.19 253.58 455.73 253.38 455.25 253.25C454.77 253.12 454.27 253.05 453.78 253.05L125.94 253.05C125.21 253.05 124.49 253.2 123.82 253.48C123.15 253.76 122.54 254.16 122.02 254.68C121.51 255.2 121.1 255.81 120.82 256.48C120.54 257.15 120.4 257.87 120.4 258.6L120.4 454.82L459.33 454.82L459.33 258.6C459.33 258.37 459.32 258.14 459.29 257.91C459.26 257.68 459.22 257.45 459.16 257.23C459.1 257.01 459.03 256.79 458.94 256.57C458.86 256.36 458.76 256.15 458.65 255.95L458.65 255.95Z" />
	<path id="Layer" class="shp6" d="M120.1 449.51L120.1 473.72C120.1 474.72 120.3 475.72 120.68 476.65C121.07 477.57 121.63 478.42 122.34 479.13C123.05 479.84 123.89 480.4 124.82 480.78C125.75 481.17 126.74 481.36 127.74 481.36L252.84 481.36L252.84 529.15L251.18 529.15C251.05 529.15 250.92 529.18 250.8 529.23C250.68 529.28 250.57 529.35 250.48 529.44C250.39 529.53 250.31 529.64 250.26 529.76C250.21 529.88 250.19 530.01 250.19 530.14L250.19 533.47C250.19 533.6 250.21 533.73 250.26 533.85C250.31 533.97 250.39 534.08 250.48 534.17C250.57 534.26 250.68 534.34 250.8 534.39C250.92 534.44 251.05 534.46 251.18 534.46L328.84 534.46C328.97 534.46 329.1 534.44 329.22 534.39C329.34 534.34 329.45 534.26 329.54 534.17C329.63 534.08 329.71 533.97 329.76 533.85C329.81 533.73 329.83 533.6 329.83 533.47L329.83 530.14C329.83 530.01 329.81 529.88 329.76 529.76C329.71 529.64 329.63 529.53 329.54 529.44C329.45 529.35 329.34 529.28 329.22 529.23C329.1 529.18 328.97 529.15 328.84 529.15L327.18 529.15L327.18 481.36L452.27 481.36C453.28 481.36 454.27 481.17 455.2 480.78C456.13 480.4 456.97 479.84 457.68 479.13C458.39 478.42 458.95 477.57 459.34 476.65C459.72 475.72 459.92 474.72 459.92 473.72L459.92 449.51L120.1 449.51Z" />
	<path id="Layer" class="shp0" d="M285.9 380.01C268.59 380.01 254.6 366.02 254.6 348.7C254.6 331.39 268.59 317.4 285.9 317.4C303.22 317.4 317.21 331.39 317.21 348.7C317.21 366.02 303.22 380.01 285.9 380.01Z" />
	<path id="Layer" class="shp0" d="M365.67 173L360.67 173C360.67 135.2 323.26 110.43 285.52 110.41C284.15 110.41 282.78 110.44 281.41 110.5C280.04 110.56 278.67 110.66 277.3 110.8C275.94 110.93 274.58 111.1 273.22 111.3C271.86 111.5 270.51 111.73 269.17 112C263.11 113.21 256.82 114.66 250.64 116.55C226.27 124.02 203.67 138.46 203.67 173C203.67 174.67 203.72 176.35 203.82 178.02C203.93 179.69 204.09 181.36 204.3 183.02C204.51 184.68 204.78 186.34 205.1 187.98C205.42 189.63 205.79 191.26 206.21 192.88L201.37 194.14C200.92 192.42 200.53 190.68 200.19 188.93C199.85 187.18 199.57 185.42 199.34 183.66C199.12 181.89 198.95 180.12 198.84 178.34C198.72 176.56 198.67 174.78 198.67 173C198.67 142.82 211.06 122.09 232.46 109.73C243.71 103.23 257.44 99.04 273.17 97C274.8 96.78 276.44 96.61 278.09 96.47C279.73 96.34 281.38 96.25 283.03 96.2C284.68 96.15 286.33 96.14 287.98 96.17C289.62 96.21 291.27 96.28 292.92 96.4C336.32 99.52 365.67 132.8 365.67 173Z" />
	<path id="Layer" class="shp0" d="M374 175.77L372.03 161.21C371.91 160.3 371.71 159.4 371.43 158.53C371.15 157.65 370.8 156.8 370.37 155.99C369.95 155.17 369.45 154.4 368.89 153.67C368.33 152.94 367.71 152.27 367.03 151.65C366.15 150.84 365.18 150.13 364.15 149.54C363.11 148.94 362.01 148.47 360.86 148.12C359.72 147.78 358.54 147.56 357.35 147.48C356.16 147.4 354.96 147.46 353.78 147.65L350.65 148.08C350.22 148.14 349.8 148.23 349.39 148.37C348.98 148.51 348.59 148.69 348.22 148.91C347.85 149.12 347.5 149.38 347.17 149.66C346.85 149.95 346.56 150.27 346.3 150.61C346.04 150.95 345.81 151.32 345.62 151.71C345.43 152.09 345.28 152.5 345.17 152.92C345.06 153.33 344.99 153.76 344.96 154.19C344.93 154.62 344.95 155.05 345.01 155.48L349.56 189.02C349.65 189.7 349.85 190.36 350.15 190.98C350.44 191.6 350.84 192.16 351.31 192.66C351.78 193.16 352.33 193.58 352.93 193.9C353.53 194.23 354.18 194.46 354.86 194.59C354.96 194.61 355.06 194.63 355.16 194.64C355.26 194.66 355.36 194.67 355.47 194.68C355.57 194.69 355.67 194.7 355.77 194.7C355.87 194.71 355.98 194.71 356.08 194.71C356.15 194.71 356.23 194.71 356.3 194.71C356.37 194.7 356.45 194.7 356.52 194.69C356.59 194.69 356.67 194.68 356.74 194.68C356.81 194.67 356.89 194.66 356.96 194.65L360.46 194.18C361.52 194.04 362.57 193.79 363.58 193.44C364.6 193.08 365.57 192.63 366.49 192.07C367.41 191.52 368.28 190.88 369.07 190.15C369.86 189.43 370.57 188.62 371.2 187.75C371.47 187.37 371.73 186.98 371.97 186.58C372.43 185.77 372.83 184.92 373.15 184.04C373.47 183.17 373.72 182.26 373.9 181.35C374.07 180.43 374.16 179.5 374.18 178.56C374.2 177.63 374.14 176.69 374 175.77L374 175.77Z" />
	<path id="Layer" class="shp1" d="M348.63 148.69C348.4 148.8 348.18 148.93 347.96 149.06C347.75 149.2 347.54 149.35 347.35 149.51C347.15 149.67 346.97 149.85 346.79 150.03C346.62 150.21 346.45 150.41 346.3 150.61C346.04 150.95 345.81 151.32 345.62 151.71C345.43 152.09 345.28 152.5 345.17 152.92C345.06 153.33 344.99 153.76 344.96 154.19C344.93 154.62 344.95 155.05 345.01 155.48L349.56 189.02C349.65 189.7 349.85 190.36 350.15 190.98C350.44 191.6 350.84 192.16 351.31 192.66C351.78 193.16 352.33 193.58 352.93 193.9C353.53 194.23 354.18 194.46 354.86 194.59L348.63 148.69Z" />
	<path id="Layer" class="shp6" d="M374 175.77L372.03 161.21C371.91 160.3 371.71 159.4 371.43 158.53C371.15 157.65 370.8 156.8 370.37 155.99C369.95 155.17 369.45 154.4 368.89 153.67C368.33 152.94 367.71 152.27 367.03 151.65L371.56 185.02C371.57 185.15 371.6 185.29 371.62 185.42C371.65 185.55 371.68 185.68 371.71 185.81C371.75 185.94 371.78 186.07 371.83 186.2C371.87 186.33 371.92 186.45 371.97 186.58C372.43 185.77 372.83 184.92 373.15 184.04C373.47 183.17 373.72 182.26 373.9 181.35C374.07 180.43 374.16 179.5 374.18 178.56C374.2 177.63 374.14 176.69 374 175.77L374 175.77Z" />
	<path id="Layer" class="shp6" d="M358.43 186.26C357.06 186.45 355.53 183.5 355.01 179.66C354.49 175.82 355.18 172.57 356.55 172.39C357.92 172.2 359.44 175.15 359.96 178.99C360.49 182.82 359.8 186.07 358.43 186.26Z" />
	<path id="Layer" class="shp6" d="M355.43 168.26C354.06 168.45 352.53 165.5 352.01 161.66C351.49 157.82 352.18 154.57 353.55 154.39C354.92 154.2 356.44 157.15 356.96 160.99C357.49 164.82 356.8 168.07 355.43 168.26Z" />
	<path id="Layer" class="shp6" d="M374.43 175.26C373.06 175.45 371.53 172.5 371.01 168.66C370.49 164.82 371.18 161.57 372.55 161.39C373.92 161.2 375.44 164.15 375.96 167.99C376.49 171.82 375.8 175.07 374.43 175.26Z" />
	<path id="Layer" class="shp6" d="M285.52 110.41C284.15 110.41 282.78 110.44 281.41 110.5C280.04 110.56 278.67 110.66 277.3 110.8C275.94 110.93 274.58 111.1 273.22 111.3C271.86 111.5 270.51 111.73 269.17 112C263.11 113.21 256.82 114.66 250.64 116.55C240.99 116.08 233.89 113.58 232.46 109.73C243.71 103.23 257.44 99.04 273.17 97C274.8 96.78 276.44 96.61 278.09 96.47C279.73 96.34 281.38 96.25 283.03 96.2C284.68 96.15 286.33 96.14 287.98 96.17C289.62 96.21 291.27 96.28 292.92 96.4C293.27 96.6 293.59 96.84 293.89 97.12C294.19 97.39 294.45 97.69 294.69 98.02C294.92 98.35 295.12 98.7 295.28 99.07C295.44 99.44 295.56 99.82 295.64 100.22C296.11 103.7 292.14 107.4 285.52 110.41Z" />
	<path id="Layer" class="shp0" d="M221.68 207.7L213.98 175.69C213.84 175.12 213.62 174.56 213.32 174.05C213.03 173.54 212.66 173.08 212.23 172.68C211.79 172.27 211.31 171.94 210.78 171.68C210.25 171.42 209.68 171.24 209.1 171.14C209.02 171.13 208.93 171.12 208.85 171.11C208.77 171.1 208.68 171.09 208.6 171.08C208.52 171.07 208.43 171.07 208.35 171.07C208.27 171.06 208.18 171.06 208.1 171.06C207.98 171.06 207.86 171.06 207.74 171.07C207.63 171.08 207.51 171.09 207.39 171.1C207.28 171.12 207.16 171.14 207.04 171.16C206.93 171.18 206.81 171.2 206.7 171.23L203.72 171.95C201.82 172.41 200.03 173.24 198.45 174.39C196.87 175.54 195.53 176.99 194.51 178.66C193.49 180.32 192.81 182.18 192.5 184.11C192.2 186.04 192.27 188.01 192.73 189.91L196.18 204.27C196.37 205.11 196.64 205.93 196.97 206.72C197.29 207.52 197.69 208.29 198.14 209.02C198.59 209.75 199.11 210.44 199.67 211.09C200.24 211.74 200.85 212.34 201.52 212.89C201.63 212.98 201.74 213.06 201.85 213.15C201.96 213.23 202.07 213.31 202.18 213.39C202.3 213.48 202.41 213.55 202.53 213.63C202.64 213.71 202.76 213.79 202.88 213.86C203.71 214.38 204.6 214.82 205.52 215.17C206.45 215.52 207.4 215.77 208.38 215.93C209.35 216.09 210.34 216.15 211.32 216.11C212.31 216.07 213.29 215.93 214.25 215.7L217.22 214.98C217.41 214.93 217.61 214.88 217.8 214.81C217.99 214.75 218.17 214.67 218.36 214.59C218.54 214.5 218.72 214.41 218.89 214.3C219.06 214.2 219.23 214.09 219.39 213.97C219.87 213.62 220.29 213.2 220.64 212.73C221 212.26 221.28 211.74 221.49 211.18C221.69 210.63 221.81 210.05 221.84 209.46C221.87 208.87 221.82 208.27 221.68 207.7Z" />
	<path id="Layer" class="shp6" d="M205.54 201.74C204.19 202.07 202.37 199.29 201.47 195.52C200.56 191.76 200.92 188.46 202.26 188.13C203.6 187.81 205.42 190.59 206.33 194.35C207.23 198.12 206.88 201.42 205.54 201.74Z" />
	<path id="Layer" class="shp6" d="M195.54 204.74C194.19 205.07 192.37 202.29 191.47 198.52C190.56 194.76 190.92 191.46 192.26 191.13C193.6 190.81 195.42 193.59 196.33 197.35C197.23 201.12 196.88 204.42 195.54 204.74Z" />
	<path id="Layer" class="shp1" d="M222.17 207.58L214.47 175.57C214.32 174.95 214.08 174.35 213.76 173.8C213.43 173.25 213.03 172.75 212.57 172.31C212.1 171.88 211.57 171.51 210.99 171.23C210.42 170.95 209.81 170.75 209.18 170.65L219.69 214.37C220.2 213.99 220.66 213.54 221.05 213.03C221.43 212.52 221.74 211.95 221.96 211.35C222.18 210.75 222.31 210.12 222.34 209.48C222.38 208.84 222.32 208.2 222.17 207.58Z" />
	<path id="Layer" class="shp6" d="M195.47 183.57C195.42 183.35 195.35 183.13 195.27 182.91C195.2 182.7 195.11 182.49 195.01 182.28C194.91 182.08 194.81 181.88 194.69 181.68C194.57 181.49 194.44 181.3 194.3 181.12C194.03 181.82 193.81 182.53 193.65 183.26C193.49 183.99 193.39 184.73 193.34 185.47C193.29 186.22 193.3 186.96 193.37 187.71C193.43 188.45 193.55 189.18 193.73 189.91L197.18 204.27C197.37 205.11 197.64 205.93 197.97 206.72C198.29 207.52 198.69 208.29 199.14 209.02C199.59 209.75 200.11 210.44 200.67 211.09C201.24 211.74 201.85 212.34 202.52 212.89L195.47 183.57Z" />
</svg>