<svg id="visual" viewBox="0 0 900 600" width="900" height="600" xmlns="http://www.w3.org/2000/svg" xmlns:xlink="http://www.w3.org/1999/xlink" version="1.1"><rect x="0" y="0" width="900" height="600" fill="#001220"></rect><path d="M0 462L21.5 458.2C43 454.3 86 446.7 128.8 442.3C171.7 438 214.3 437 257.2 432.5C300 428 343 420 385.8 416.2C428.7 412.3 471.3 412.7 514.2 415.8C557 419 600 425 642.8 425.8C685.7 426.7 728.3 422.3 771.2 423.5C814 424.7 857 431.3 878.5 434.7L900 438L900 601L878.5 601C857 601 814 601 771.2 601C728.3 601 685.7 601 642.8 601C600 601 557 601 514.2 601C471.3 601 428.7 601 385.8 601C343 601 300 601 257.2 601C214.3 601 171.7 601 128.8 601C86 601 43 601 21.5 601L0 601Z" fill="#0d0d0e"></path><path d="M0 504L21.5 502.5C43 501 86 498 128.8 494.8C171.7 491.7 214.3 488.3 257.2 487.3C300 486.3 343 487.7 385.8 489C428.7 490.3 471.3 491.7 514.2 485.8C557 480 600 467 642.8 462.7C685.7 458.3 728.3 462.7 771.2 466.2C814 469.7 857 472.3 878.5 473.7L900 475L900 601L878.5 601C857 601 814 601 771.2 601C728.3 601 685.7 601 642.8 601C600 601 557 601 514.2 601C471.3 601 428.7 601 385.8 601C343 601 300 601 257.2 601C214.3 601 171.7 601 128.8 601C86 601 43 601 21.5 601L0 601Z" fill="#0f0f10"></path><path d="M0 512L21.5 508C43 504 86 496 128.8 491.8C171.7 487.7 214.3 487.3 257.2 488.7C300 490 343 493 385.8 496.8C428.7 500.7 471.3 505.3 514.2 502C557 498.7 600 487.3 642.8 486.2C685.7 485 728.3 494 771.2 498.2C814 502.3 857 501.7 878.5 501.3L900 501L900 601L878.5 601C857 601 814 601 771.2 601C728.3 601 685.7 601 642.8 601C600 601 557 601 514.2 601C471.3 601 428.7 601 385.8 601C343 601 300 601 257.2 601C214.3 601 171.7 601 128.8 601C86 601 43 601 21.5 601L0 601Z" fill="#101011"></path><path d="M0 549L21.5 543.7C43 538.3 86 527.7 128.8 520.7C171.7 513.7 214.3 510.3 257.2 515.2C300 520 343 533 385.8 539.2C428.7 545.3 471.3 544.7 514.2 538.7C557 532.7 600 521.3 642.8 516.5C685.7 511.7 728.3 513.3 771.2 514.2C814 515 857 515 878.5 515L900 515L900 601L878.5 601C857 601 814 601 771.2 601C728.3 601 685.7 601 642.8 601C600 601 557 601 514.2 601C471.3 601 428.7 601 385.8 601C343 601 300 601 257.2 601C214.3 601 171.7 601 128.8 601C86 601 43 601 21.5 601L0 601Z" fill="#111113"></path><path d="M0 562L21.5 564.2C43 566.3 86 570.7 128.8 570.2C171.7 569.7 214.3 564.3 257.2 563.8C300 563.3 343 567.7 385.8 570.3C428.7 573 471.3 574 514.2 569.8C557 565.7 600 556.3 642.8 555.8C685.7 555.3 728.3 563.7 771.2 563.8C814 564 857 556 878.5 552L900 548L900 601L878.5 601C857 601 814 601 771.2 601C728.3 601 685.7 601 642.8 601C600 601 557 601 514.2 601C471.3 601 428.7 601 385.8 601C343 601 300 601 257.2 601C214.3 601 171.7 601 128.8 601C86 601 43 601 21.5 601L0 601Z" fill="#121214"></path></svg>