<svg version="1.2" baseProfile="tiny-ps" xmlns="http://www.w3.org/2000/svg" viewBox="0 0 463 516" width="463" height="516">
	<title>social-svg-svg</title>
	<style>
		tspan { white-space:pre }
		.shp0 { fill: #3f3d56 } 
		.shp1 { fill: #cccccc } 
		.shp2 { fill: #ffb8b8 } 
		.shp3 { fill: #2f2e41 } 
		.shp4 { fill: #c64103 } 
		.shp5 { fill: #cbcbcb } 
		.shp6 { fill: #ffffff } 
	</style>
	<path id="Layer" class="shp0" d="M193.62 293.46C193.92 293.58 194.19 293.77 194.41 294C194.64 294.23 194.82 294.51 194.94 294.81C195.06 295.11 195.11 295.43 195.11 295.75C195.11 296.07 195.04 296.39 194.91 296.69L191.57 304.44L191.95 304.64L189.67 309.9L189.31 309.7L177.35 337.49C177.14 337.96 176.86 338.39 176.5 338.76C176.14 339.13 175.72 339.43 175.26 339.65C174.8 339.87 174.3 340.01 173.78 340.05C173.27 340.09 172.76 340.04 172.26 339.9L153.66 334.62C153.21 334.49 152.79 334.26 152.43 333.95C152.08 333.65 151.79 333.26 151.6 332.83C151.41 332.41 151.31 331.94 151.32 331.47C151.32 331 151.43 330.53 151.64 330.11L170.39 291.23C170.58 290.83 170.84 290.46 171.16 290.14C171.48 289.82 171.85 289.56 172.26 289.37C172.66 289.17 173.1 289.05 173.55 289C173.99 288.95 174.45 288.97 174.88 289.08L193.19 293.31L193.19 293.31C193.22 293.32 193.26 293.33 193.3 293.34C193.33 293.35 193.37 293.36 193.41 293.38C193.44 293.39 193.48 293.4 193.52 293.41C193.55 293.43 193.59 293.44 193.62 293.46L193.62 293.46Z" />
	<path id="Layer" class="shp0" d="M178.14 292.07L187.76 294.3C187.85 294.32 187.94 294.33 188.03 294.32C188.11 294.31 188.2 294.29 188.28 294.25C188.36 294.21 188.44 294.16 188.5 294.1C188.56 294.04 188.62 293.97 188.66 293.89L188.66 293.89C188.71 293.81 188.77 293.73 188.84 293.66C188.91 293.59 189 293.53 189.09 293.49C189.18 293.45 189.28 293.42 189.38 293.41C189.48 293.4 189.58 293.41 189.67 293.43L191.7 293.9C191.98 293.97 192.24 294.09 192.46 294.27C192.68 294.44 192.87 294.66 192.99 294.92C193.12 295.17 193.19 295.45 193.2 295.73C193.21 296.01 193.16 296.3 193.05 296.56L175.73 336.86C175.63 337.1 175.47 337.33 175.29 337.52C175.1 337.72 174.88 337.87 174.63 337.99C174.39 338.1 174.12 338.17 173.85 338.19C173.59 338.21 173.32 338.18 173.06 338.1L154.59 332.53C154.35 332.46 154.13 332.34 153.95 332.17C153.77 332.01 153.62 331.81 153.52 331.59C153.42 331.36 153.37 331.12 153.37 330.87C153.37 330.62 153.43 330.38 153.54 330.16L171.83 291.53C171.97 291.25 172.15 290.99 172.37 290.77C172.59 290.55 172.85 290.36 173.13 290.23C173.41 290.09 173.71 290 174.02 289.97C174.33 289.93 174.65 289.95 174.95 290.02L177.09 290.52C177.06 290.69 177.07 290.86 177.11 291.03C177.14 291.2 177.21 291.36 177.31 291.5C177.41 291.64 177.53 291.77 177.67 291.87C177.82 291.96 177.97 292.03 178.14 292.07L178.14 292.07Z" />
	<path id="Layer" fill-rule="evenodd" class="shp1" d="M214.33 58.07C207.83 42.38 211.43 24.31 223.44 12.3C235.45 0.29 253.51 -3.3 269.21 3.2C284.9 9.7 295.14 25.01 295.14 42C295.13 47.51 294.04 52.97 291.93 58.07C289.81 63.16 286.72 67.79 282.82 71.68C278.92 75.58 274.29 78.68 269.2 80.79C264.11 82.9 258.65 83.99 253.14 84C236.15 84 220.83 73.77 214.33 58.07ZM216.18 26.69C209.99 41.64 213.41 58.84 224.85 70.28C236.29 81.72 253.5 85.15 268.44 78.96C283.39 72.76 293.14 58.18 293.14 42C293.13 36.75 292.09 31.55 290.08 26.7C288.07 21.85 285.12 17.44 281.41 13.73C277.69 10.02 273.29 7.07 268.44 5.06C263.59 3.04 258.39 2.01 253.14 2C236.96 2 222.37 11.75 216.18 26.69Z" />
	<path id="Layer" fill-rule="evenodd" class="shp1" d="M376.33 97.07C369.83 81.38 373.43 63.31 385.44 51.3C397.45 39.29 415.51 35.7 431.21 42.2C446.9 48.7 457.14 64.01 457.14 81C457.13 86.51 456.04 91.97 453.93 97.07C451.81 102.16 448.72 106.79 444.82 110.68C440.92 114.58 436.29 117.68 431.2 119.79C426.11 121.9 420.65 122.99 415.14 123C398.15 123 382.83 112.77 376.33 97.07ZM378.18 65.69C371.99 80.64 375.41 97.84 386.85 109.28C398.29 120.72 415.5 124.15 430.44 117.96C445.39 111.76 455.14 97.18 455.14 81C455.13 75.75 454.09 70.55 452.08 65.7C450.07 60.85 447.12 56.44 443.41 52.73C439.69 49.02 435.29 46.07 430.44 44.06C425.59 42.04 420.39 41.01 415.14 41C398.96 41 384.37 50.75 378.18 65.69Z" />
	<path id="Layer" fill-rule="evenodd" class="shp1" d="M301.33 230.07C294.83 214.38 298.43 196.31 310.44 184.3C322.45 172.29 340.51 168.7 356.21 175.2C371.9 181.7 382.14 197.01 382.14 214C382.13 219.51 381.04 224.97 378.93 230.07C376.81 235.16 373.72 239.79 369.82 243.68C365.92 247.58 361.29 250.68 356.2 252.79C351.11 254.9 345.65 255.99 340.14 256C323.15 256 307.83 245.77 301.33 230.07ZM303.18 198.69C296.99 213.64 300.41 230.84 311.85 242.28C323.29 253.72 340.5 257.15 355.44 250.96C370.39 244.76 380.14 230.18 380.14 214C380.13 208.75 379.09 203.55 377.08 198.7C375.07 193.85 372.12 189.44 368.41 185.73C364.69 182.02 360.29 179.07 355.44 177.06C350.59 175.04 345.39 174.01 340.14 174C323.96 174 309.37 183.75 303.18 198.69Z" />
	<path id="Layer" class="shp0" d="M439.14 69.5L444.14 68.5C444.14 68.5 439.94 73.2 439.14 73.5L439.14 73.5C439.12 73.75 439.1 74 439.09 74.25C439.09 74.5 439.08 74.75 439.08 75C439.08 75.25 439.09 75.5 439.09 75.75C439.1 76 439.12 76.25 439.14 76.5C429.54 117.7 394.14 99.5 394.14 99.5C407.04 99.8 408.14 94.5 408.14 94.5C400.64 93.4 399.14 88.5 399.14 88.5C399.47 88.67 399.83 88.79 400.21 88.83C400.58 88.88 400.96 88.85 401.33 88.76C401.69 88.67 402.04 88.51 402.35 88.3C402.66 88.08 402.92 87.81 403.14 87.5C395.04 85.4 396.14 77.5 396.14 77.5C396.5 77.76 396.87 77.99 397.26 78.2C397.65 78.42 398.05 78.6 398.46 78.76C398.88 78.92 399.3 79.06 399.73 79.16C400.16 79.27 400.6 79.35 401.04 79.4C400.14 78.3 392.54 69.2 397.14 64.5C397.14 64.5 402.74 74.5 417.44 75.4L418.44 75.2C418.39 75.02 418.36 74.84 418.33 74.65C418.3 74.47 418.28 74.29 418.26 74.1C418.24 73.92 418.23 73.74 418.23 73.55C418.22 73.37 418.23 73.18 418.24 73C418.24 71.62 418.51 70.25 419.04 68.98C419.56 67.71 420.34 66.55 421.31 65.57C422.29 64.6 423.44 63.82 424.72 63.3C425.99 62.77 427.36 62.5 428.74 62.5C435.74 62.5 437.24 66.5 437.24 66.5L442.24 63.5C442.14 63.5 441.64 68.5 439.14 69.5Z" />
	<path id="Layer" fill-rule="evenodd" class="shp0" d="M360.17 191.22C360.6 191.38 361 191.64 361.33 191.96C361.66 192.28 361.93 192.67 362.1 193.1C362.28 193.53 362.37 193.99 362.36 194.46L362.36 231.6C362.37 232.08 362.29 232.57 362.12 233.02C361.95 233.47 361.69 233.88 361.36 234.24C361.03 234.59 360.64 234.87 360.2 235.07C359.76 235.28 359.28 235.39 358.8 235.41L321.75 235.41C321.25 235.4 320.76 235.29 320.31 235.09C319.85 234.9 319.44 234.62 319.09 234.26C318.74 233.91 318.46 233.5 318.27 233.04C318.07 232.59 317.97 232.1 317.95 231.61L317.95 194.46C317.97 193.98 318.08 193.52 318.29 193.08C318.49 192.65 318.78 192.26 319.13 191.94C319.48 191.62 319.89 191.37 320.34 191.21C320.79 191.05 321.27 190.98 321.74 191L358.81 191C359.27 190.98 359.73 191.05 360.17 191.22ZM331.72 208.24L325.35 208.24L325.36 228.02L331.72 228.02L331.72 208.24ZM332.19 201.76C332.19 199.85 330.64 198.31 328.73 198.31C326.83 198.31 325.28 199.85 325.27 201.76C325.27 203.67 326.8 205.22 328.71 205.23L328.76 205.23C330.66 205.22 332.2 203.67 332.19 201.76ZM354.97 216.46C354.97 210.52 351.81 207.77 347.63 207.77C347.06 207.76 346.48 207.82 345.92 207.96C345.36 208.1 344.83 208.31 344.32 208.59C343.82 208.88 343.36 209.22 342.95 209.63C342.54 210.03 342.18 210.49 341.9 210.99L341.9 208.24L335.53 208.24L335.54 228.02L341.9 228.02L341.9 216.75C341.89 216.62 341.89 216.49 341.9 216.35C341.9 216.22 341.92 216.09 341.93 215.96C341.95 215.83 341.98 215.7 342.01 215.57C342.04 215.44 342.07 215.31 342.12 215.19C342.23 214.85 342.4 214.53 342.61 214.24C342.83 213.96 343.08 213.7 343.37 213.49C343.66 213.29 343.99 213.12 344.33 213.01C344.67 212.9 345.02 212.84 345.38 212.84C347.68 212.84 348.61 214.61 348.61 217.2L348.61 228.02L354.97 228.02L354.97 216.46Z" />
	<path id="Layer" fill-rule="evenodd" class="shp0" d="M280.59 42.16C280.59 31.45 274.36 21.72 264.63 17.23C254.9 12.75 243.45 14.34 235.3 21.3C227.16 28.25 223.8 39.32 226.71 49.63C229.62 59.94 238.26 67.61 248.85 69.29L248.85 50.1L241.87 50.1L241.87 42.16L248.85 42.16L248.85 36.11C248.85 29.23 252.95 25.43 259.22 25.43C259.73 25.44 260.25 25.46 260.76 25.48C261.27 25.51 261.79 25.54 262.3 25.59C262.81 25.63 263.33 25.69 263.84 25.75C264.35 25.81 264.86 25.89 265.36 25.97L265.36 32.73L261.9 32.73C258.49 32.73 257.43 34.84 257.43 37.02L257.43 42.17L265.04 42.17L263.82 50.11L257.43 50.11L257.43 69.29C260.63 68.78 263.72 67.71 266.55 66.13C269.38 64.54 271.91 62.47 274.01 60C276.12 57.53 277.77 54.71 278.9 51.67C280.02 48.63 280.59 45.41 280.59 42.16L280.59 42.16Z" />
	<path id="Layer" class="shp2" d="M132.34 503.46L143.77 503.46L149.21 459.36L132.33 459.36L132.34 503.46L132.34 503.46Z" />
	<path id="Layer" class="shp3" d="M165.82 514.07L129.89 514.08L129.89 500.19L151.93 500.19C153.76 500.19 155.56 500.55 157.25 501.25C158.93 501.95 160.46 502.97 161.75 504.26C163.04 505.55 164.06 507.08 164.76 508.76C165.46 510.44 165.82 512.25 165.82 514.07L165.82 514.07C664.43 1206.23 664.43 1206.23 664.43 1206.23L664.43 1206.23L664.43 1206.23L664.43 1206.23L165.82 514.07Z" />
	<path id="Layer" class="shp2" d="M70.72 503.46L82.15 503.46L87.58 459.36L70.71 459.36L70.72 503.46L70.72 503.46Z" />
	<path id="Layer" class="shp3" d="M104.2 514.07L68.27 514.08L68.27 500.19L90.31 500.19C92.14 500.19 93.94 500.55 95.63 501.25C97.31 501.95 98.84 502.97 100.13 504.26C101.42 505.55 102.44 507.08 103.14 508.76C103.84 510.44 104.2 512.25 104.2 514.07L104.2 514.07C541.19 1206.24 541.19 1206.24 541.19 1206.24L541.19 1206.24L541.19 1206.24L541.19 1206.24L104.2 514.07Z" />
	<path id="Layer" class="shp2" d="M104.2 189.98C90.61 189.98 79.64 179.01 79.64 165.42C79.64 151.84 90.61 140.86 104.2 140.86C117.78 140.86 128.76 151.84 128.76 165.42C128.76 179.01 117.78 189.98 104.2 189.98Z" />
	<path id="Layer" class="shp2" d="M188.18 325.6C188.01 324.24 187.54 322.94 186.81 321.78C186.08 320.62 185.1 319.63 183.95 318.89C182.8 318.15 181.49 317.67 180.14 317.48C178.78 317.3 177.4 317.41 176.09 317.82L162.36 301.37L150.33 307.27L170.04 330.24C170.87 332.39 172.46 334.16 174.51 335.22C176.56 336.28 178.93 336.55 181.17 335.98C183.4 335.41 185.35 334.03 186.64 332.12C187.94 330.21 188.48 327.89 188.18 325.6Z" />
	<path id="Layer" class="shp2" d="M70.05 342.24C70.63 341 70.94 339.65 70.94 338.28C70.95 336.91 70.65 335.55 70.08 334.31C69.5 333.06 68.66 331.96 67.61 331.08C66.57 330.19 65.34 329.55 64.01 329.19L61.26 307.94L47.94 306.47L52.25 336.42C51.8 338.68 52.19 341.03 53.35 343.03C54.51 345.02 56.37 346.52 58.56 347.24C60.75 347.95 63.14 347.84 65.25 346.92C67.37 346 69.07 344.34 70.05 342.24L70.05 342.24Z" />
	<path id="Layer" class="shp3" d="M51.4 329.25C50.87 329.25 50.34 329.15 49.83 328.97C49.33 328.78 48.87 328.51 48.46 328.16C48.06 327.81 47.72 327.39 47.46 326.92C47.2 326.45 47.03 325.94 46.95 325.41L40.39 281.25C40.19 279.87 40.08 278.48 40.05 277.08C40.03 275.68 40.1 274.28 40.27 272.9C40.43 271.51 40.68 270.13 41.03 268.78C41.37 267.43 41.81 266.1 42.32 264.8L62.46 214.56C63.28 212.5 64.63 210.7 66.37 209.34C68.11 207.97 70.19 207.09 72.38 206.78C74.57 206.47 76.8 206.74 78.86 207.57C80.91 208.4 82.7 209.76 84.06 211.51L84.06 211.51C84.76 212.4 85.34 213.39 85.77 214.44C86.21 215.49 86.5 216.6 86.63 217.72C86.77 218.85 86.75 219.99 86.58 221.12C86.41 222.24 86.09 223.34 85.62 224.38L76.13 245.6C73.49 251.52 71.24 257.61 69.41 263.84C67.58 270.06 66.17 276.39 65.19 282.8C64.21 289.21 63.66 295.68 63.55 302.16C63.43 308.65 63.76 315.13 64.51 321.57C64.57 322.09 64.54 322.62 64.42 323.13C64.3 323.63 64.1 324.12 63.81 324.56C63.52 324.99 63.17 325.38 62.75 325.69C62.33 326.01 61.86 326.24 61.36 326.4L52.72 329.05C52.62 329.08 52.51 329.11 52.4 329.14C52.29 329.16 52.18 329.18 52.07 329.2C51.96 329.22 51.85 329.23 51.74 329.24C51.63 329.25 51.51 329.25 51.4 329.25Z" />
	<path id="Layer" class="shp4" d="M98.22 189.98C90.74 190.15 83.55 187.1 78.46 181.63C73.37 176.15 70.86 168.76 71.56 161.31C72.27 153.87 76.12 147.08 82.15 142.66C88.18 138.23 95.81 136.6 103.13 138.16C108.53 134.88 114.81 132.67 121.1 133.23C127.4 133.79 133.62 137.53 135.97 143.4C138.33 149.26 135.8 156.99 129.95 159.37C126.19 160.9 121.96 160.16 117.95 159.54C113.95 158.93 109.58 158.53 106.1 160.59C102.61 162.66 101.05 168.2 104.17 170.78C104.99 171.49 105.7 172.32 106.27 173.24C106.85 174.16 107.28 175.16 107.55 176.21C107.83 177.26 107.94 178.34 107.89 179.43C107.84 180.51 107.62 181.58 107.25 182.6C105.68 186.66 101.4 189.91 98.22 189.98Z" />
	<path id="Layer" class="shp5" d="M67.39 494.58C66.79 494.58 66.19 494.46 65.64 494.22C65.08 493.99 64.58 493.65 64.16 493.22C63.74 492.79 63.41 492.28 63.19 491.72C62.98 491.16 62.87 490.56 62.89 489.96L67.26 324.14L67.73 324.13L139.96 322.56L152.43 483.79C152.46 484.28 152.42 484.77 152.29 485.24C152.17 485.71 151.97 486.16 151.71 486.57C151.44 486.98 151.11 487.35 150.72 487.65C150.34 487.95 149.91 488.19 149.45 488.35L149.31 488.38L135.14 489.25C134.54 489.45 133.9 489.52 133.28 489.46C132.65 489.41 132.04 489.22 131.49 488.91C130.94 488.6 130.46 488.17 130.08 487.67C129.71 487.16 129.44 486.58 129.31 485.97L106.2 382.57C106.12 382.23 105.93 381.93 105.65 381.71C105.38 381.5 105.04 381.39 104.69 381.4C104.34 381.41 104 381.54 103.74 381.77C103.48 382 103.31 382.32 103.25 382.66L86.18 490.05C86.1 490.55 85.93 491.04 85.69 491.49C85.44 491.94 85.12 492.34 84.74 492.69C84.36 493.03 83.92 493.3 83.45 493.5C82.98 493.7 82.48 493.81 81.97 493.84L67.61 494.57C67.54 494.57 67.46 494.58 67.39 494.58Z" />
	<path id="Layer" class="shp3" d="M88.64 337.87C79.66 337.87 71.81 336.51 67.47 332.63C64.69 330.14 63.48 326.76 63.89 322.57C65.43 306.83 62.76 272.32 60.25 246.15C59.97 243.09 59.98 240 60.31 236.95C60.63 233.89 61.25 230.87 62.17 227.93C63.09 225 64.3 222.16 65.77 219.47C67.25 216.77 68.99 214.23 70.97 211.87C72.88 209.59 75.01 207.51 77.33 205.66C79.65 203.81 82.16 202.19 84.8 200.84C87.45 199.49 90.22 198.41 93.08 197.61C95.94 196.82 98.88 196.31 101.84 196.1C110.11 195.51 129.47 194.14 135.49 209.55C144.53 232.71 140.11 243.33 135.83 253.6C132.2 262.32 128.44 271.35 133.05 288.29C133.69 290.63 134.36 292.96 135.06 295.28C135.76 297.61 136.5 299.92 137.27 302.22C138.04 304.52 138.84 306.81 139.67 309.09C140.51 311.37 141.38 313.63 142.28 315.89C144.77 322.28 146.02 325.49 144.87 327.59C143.96 329.24 141.68 329.96 137.8 330.71C136.54 330.96 134.86 331.31 132.87 331.73C122.74 333.89 104.02 337.87 88.64 337.87Z" />
	<path id="Layer" class="shp3" d="M162.44 323.35C162.4 323.35 162.37 323.35 162.33 323.35C162.01 323.35 161.69 323.3 161.37 323.23C161.06 323.15 160.75 323.04 160.46 322.9C160.17 322.76 159.9 322.59 159.65 322.39C159.39 322.19 159.16 321.96 158.96 321.71L133.5 290.68C132.15 289.04 130.9 287.3 129.78 285.49C128.66 283.68 127.66 281.79 126.78 279.85C125.91 277.91 125.16 275.91 124.55 273.87C123.94 271.82 123.46 269.74 123.12 267.64L115.29 218.65C114.75 215.31 115.58 211.9 117.59 209.18C119.6 206.46 122.62 204.67 125.97 204.2C129.31 203.73 132.71 204.63 135.39 206.69C138.07 208.75 139.8 211.81 140.2 215.16L143.32 241.15C144.04 247.11 145.15 253.03 146.66 258.84C148.17 264.66 150.07 270.37 152.34 275.93C154.61 281.5 157.26 286.9 160.26 292.11C163.25 297.32 166.6 302.32 170.27 307.08L172.05 309.39C172.37 309.8 172.61 310.27 172.77 310.77C172.93 311.27 173 311.79 172.98 312.31C172.96 312.83 172.85 313.35 172.65 313.83C172.46 314.31 172.18 314.76 171.83 315.15L165.78 321.86C165.57 322.1 165.33 322.31 165.08 322.49C164.83 322.68 164.55 322.84 164.27 322.96C163.98 323.09 163.68 323.19 163.37 323.26C163.06 323.32 162.75 323.35 162.44 323.35Z" />
	<path id="Layer" class="shp0" d="M284.51 93.83C275.25 93.83 267.77 86.26 267.77 76.9C267.77 67.54 275.25 59.97 284.51 59.97C293.77 59.97 301.26 67.54 301.26 76.9C301.26 86.26 293.77 93.83 284.51 93.83Z" />
	<path id="Layer" class="shp0" d="M287.86 85.93L284.45 85.93L284.45 72.94C284.14 73.23 283.81 73.51 283.47 73.77C283.12 74.03 282.77 74.27 282.4 74.49C282.03 74.71 281.64 74.91 281.25 75.09C280.86 75.26 280.46 75.42 280.05 75.55L280.05 72.42C280.31 72.33 280.57 72.22 280.82 72.1C281.08 71.98 281.33 71.85 281.57 71.71C281.81 71.57 282.05 71.42 282.28 71.26C282.51 71.1 282.73 70.93 282.95 70.75C283.19 70.57 283.42 70.37 283.64 70.15C283.85 69.94 284.05 69.71 284.23 69.47C284.41 69.22 284.58 68.97 284.72 68.7C284.87 68.43 284.99 68.16 285.1 67.87L287.86 67.87L287.86 85.93Z" />
	<path id="Layer" class="shp0" d="M284.51 93.83C275.25 93.83 267.77 86.26 267.77 76.9C267.77 67.54 275.25 59.97 284.51 59.97C293.77 59.97 301.26 67.54 301.26 76.9C301.26 86.26 293.77 93.83 284.51 93.83Z" />
	<path id="Layer" class="shp6" d="M287.86 85.93L284.45 85.93L284.45 72.94C284.14 73.23 283.81 73.51 283.47 73.77C283.12 74.03 282.77 74.27 282.4 74.49C282.03 74.71 281.64 74.91 281.25 75.09C280.86 75.26 280.46 75.42 280.05 75.55L280.05 72.42C280.31 72.33 280.57 72.22 280.82 72.1C281.08 71.98 281.33 71.85 281.57 71.71C281.81 71.57 282.05 71.42 282.28 71.26C282.51 71.1 282.73 70.93 282.95 70.75C283.19 70.57 283.42 70.37 283.64 70.15C283.85 69.94 284.05 69.71 284.23 69.47C284.41 69.22 284.58 68.97 284.72 68.7C284.87 68.43 284.99 68.16 285.1 67.87L287.86 67.87L287.86 85.93Z" />
	<path id="Layer" class="shp0" d="M445.75 136.18C436.39 136.18 428.82 128.61 428.82 119.25C428.82 109.89 436.39 102.32 445.75 102.32C455.11 102.32 462.68 109.89 462.68 119.25C462.68 128.61 455.11 136.18 445.75 136.18Z" />
	<path id="Layer" fill-rule="evenodd" class="shp0" d="M451.08 114.62L447.94 114.98C447.94 114.85 447.92 114.71 447.89 114.58C447.86 114.44 447.82 114.31 447.77 114.18C447.72 114.06 447.66 113.93 447.59 113.82C447.52 113.7 447.44 113.59 447.35 113.49C447.26 113.41 447.17 113.34 447.07 113.27C446.98 113.21 446.87 113.16 446.77 113.12C446.66 113.08 446.55 113.05 446.43 113.03C446.32 113.01 446.2 113 446.09 113.01C445.92 113.01 445.74 113.03 445.58 113.08C445.41 113.12 445.25 113.19 445.1 113.27C444.95 113.35 444.81 113.45 444.68 113.57C444.56 113.69 444.45 113.82 444.35 113.97C444.2 114.28 444.06 114.6 443.95 114.93C443.83 115.25 443.73 115.59 443.66 115.92C443.58 116.26 443.53 116.6 443.49 116.95C443.46 117.29 443.45 117.64 443.46 117.99C443.63 117.75 443.83 117.54 444.06 117.36C444.28 117.17 444.53 117.01 444.79 116.88C445.05 116.75 445.32 116.65 445.6 116.59C445.89 116.52 446.18 116.49 446.47 116.49C446.8 116.49 447.13 116.52 447.45 116.6C447.77 116.67 448.09 116.77 448.39 116.91C448.69 117.05 448.97 117.22 449.23 117.42C449.49 117.63 449.73 117.85 449.94 118.11C450.19 118.39 450.41 118.7 450.6 119.03C450.78 119.36 450.94 119.7 451.06 120.06C451.19 120.41 451.28 120.78 451.33 121.15C451.39 121.53 451.41 121.9 451.39 122.28C451.41 122.68 451.39 123.07 451.33 123.46C451.28 123.85 451.18 124.23 451.05 124.61C450.92 124.98 450.76 125.34 450.56 125.68C450.36 126.02 450.13 126.34 449.87 126.64C449.33 127.19 448.69 127.62 447.97 127.9C447.25 128.19 446.48 128.31 445.71 128.27C444.94 128.23 444.19 128.02 443.51 127.66C442.83 127.3 442.23 126.8 441.75 126.19C440.66 124.81 440.11 122.53 440.11 119.37C440.11 116.13 440.68 113.8 441.82 112.37C442.08 112.02 442.38 111.71 442.71 111.44C443.05 111.17 443.41 110.94 443.8 110.76C444.18 110.57 444.59 110.43 445.01 110.34C445.43 110.25 445.86 110.21 446.29 110.22C446.57 110.21 446.86 110.22 447.15 110.27C447.43 110.31 447.71 110.38 447.99 110.48C448.26 110.58 448.52 110.7 448.77 110.84C449.02 110.99 449.25 111.16 449.47 111.35C449.7 111.56 449.9 111.8 450.08 112.05C450.27 112.3 450.43 112.56 450.56 112.84C450.7 113.12 450.81 113.41 450.9 113.71C450.99 114.01 451.05 114.31 451.08 114.62L451.08 114.62ZM443.75 122.69C443.78 122.91 443.82 123.14 443.88 123.35C443.94 123.57 444.02 123.78 444.12 123.98C444.22 124.19 444.33 124.38 444.46 124.57C444.56 124.7 444.67 124.82 444.79 124.93C444.91 125.04 445.04 125.13 445.19 125.21C445.33 125.29 445.48 125.35 445.64 125.39C445.8 125.44 445.96 125.46 446.12 125.47C446.27 125.47 446.41 125.45 446.55 125.42C446.69 125.39 446.83 125.34 446.96 125.27C447.09 125.21 447.21 125.13 447.32 125.04C447.44 124.95 447.54 124.84 447.62 124.73C447.74 124.55 447.84 124.36 447.92 124.17C448 123.98 448.07 123.78 448.12 123.57C448.17 123.37 448.21 123.16 448.22 122.95C448.24 122.74 448.24 122.53 448.22 122.32C448.24 122.1 448.24 121.87 448.22 121.65C448.2 121.43 448.17 121.21 448.11 121C448.06 120.78 447.98 120.57 447.89 120.37C447.8 120.17 447.7 119.97 447.58 119.79C447.39 119.54 447.15 119.34 446.88 119.2C446.6 119.07 446.3 118.99 445.99 118.99C445.68 118.98 445.38 119.05 445.1 119.18C444.82 119.32 444.57 119.51 444.38 119.75C444.27 119.91 444.16 120.09 444.07 120.27C443.99 120.45 443.92 120.63 443.86 120.83C443.81 121.02 443.77 121.22 443.75 121.41C443.73 121.61 443.72 121.81 443.74 122.01C443.72 122.24 443.73 122.47 443.75 122.69Z" />
	<path id="Layer" class="shp0" d="M445.75 136.18C436.39 136.18 428.82 128.61 428.82 119.25C428.82 109.89 436.39 102.32 445.75 102.32C455.11 102.32 462.68 109.89 462.68 119.25C462.68 128.61 455.11 136.18 445.75 136.18Z" />
	<path id="Layer" fill-rule="evenodd" class="shp6" d="M451.08 114.62L447.94 114.98C447.94 114.85 447.92 114.71 447.89 114.58C447.86 114.44 447.82 114.31 447.77 114.18C447.72 114.06 447.66 113.93 447.59 113.82C447.52 113.7 447.44 113.59 447.35 113.49C447.26 113.41 447.17 113.34 447.07 113.27C446.98 113.21 446.87 113.16 446.77 113.12C446.66 113.08 446.55 113.05 446.43 113.03C446.32 113.01 446.2 113 446.09 113.01C445.92 113.01 445.74 113.03 445.58 113.08C445.41 113.12 445.25 113.19 445.1 113.27C444.95 113.35 444.81 113.45 444.68 113.57C444.56 113.69 444.45 113.82 444.35 113.97C444.2 114.28 444.06 114.6 443.95 114.93C443.83 115.25 443.73 115.59 443.66 115.92C443.58 116.26 443.53 116.6 443.49 116.95C443.46 117.29 443.45 117.64 443.46 117.99C443.63 117.75 443.83 117.54 444.06 117.36C444.28 117.17 444.53 117.01 444.79 116.88C445.05 116.75 445.32 116.65 445.6 116.59C445.89 116.52 446.18 116.49 446.47 116.49C446.8 116.49 447.13 116.52 447.45 116.6C447.77 116.67 448.09 116.77 448.39 116.91C448.69 117.05 448.97 117.22 449.23 117.42C449.49 117.63 449.73 117.85 449.94 118.11C450.19 118.39 450.41 118.7 450.6 119.03C450.78 119.36 450.94 119.7 451.06 120.06C451.19 120.41 451.28 120.78 451.33 121.15C451.39 121.53 451.41 121.9 451.39 122.28C451.41 122.68 451.39 123.07 451.33 123.46C451.28 123.85 451.18 124.23 451.05 124.61C450.92 124.98 450.76 125.34 450.56 125.68C450.36 126.02 450.13 126.34 449.87 126.64C449.33 127.19 448.69 127.62 447.97 127.9C447.25 128.19 446.48 128.31 445.71 128.27C444.94 128.23 444.19 128.02 443.51 127.66C442.83 127.3 442.23 126.8 441.75 126.19C440.66 124.81 440.11 122.53 440.11 119.37C440.11 116.13 440.68 113.8 441.82 112.37C442.08 112.02 442.38 111.71 442.71 111.44C443.05 111.17 443.41 110.94 443.8 110.76C444.18 110.57 444.59 110.43 445.01 110.34C445.43 110.25 445.86 110.21 446.29 110.22C446.57 110.21 446.86 110.22 447.15 110.27C447.43 110.31 447.71 110.38 447.99 110.48C448.26 110.58 448.52 110.7 448.77 110.84C449.02 110.99 449.25 111.16 449.47 111.35C449.7 111.56 449.9 111.8 450.08 112.05C450.27 112.3 450.43 112.56 450.56 112.84C450.7 113.12 450.81 113.41 450.9 113.71C450.99 114.01 451.05 114.31 451.08 114.62L451.08 114.62ZM443.75 122.69C443.78 122.91 443.82 123.14 443.88 123.35C443.94 123.57 444.02 123.78 444.12 123.98C444.22 124.19 444.33 124.38 444.46 124.57C444.56 124.7 444.67 124.82 444.79 124.93C444.91 125.04 445.04 125.13 445.19 125.21C445.33 125.29 445.48 125.35 445.64 125.39C445.8 125.44 445.96 125.46 446.12 125.47C446.27 125.47 446.41 125.45 446.55 125.42C446.69 125.39 446.83 125.34 446.96 125.27C447.09 125.21 447.21 125.13 447.32 125.04C447.44 124.95 447.54 124.84 447.62 124.73C447.74 124.55 447.84 124.36 447.92 124.17C448 123.98 448.07 123.78 448.12 123.57C448.17 123.37 448.21 123.16 448.22 122.95C448.24 122.74 448.24 122.53 448.22 122.32C448.24 122.1 448.24 121.87 448.22 121.65C448.2 121.43 448.17 121.21 448.11 121C448.06 120.78 447.98 120.57 447.89 120.37C447.8 120.17 447.7 119.97 447.58 119.79C447.39 119.54 447.15 119.34 446.88 119.2C446.6 119.07 446.3 118.99 445.99 118.99C445.68 118.98 445.38 119.05 445.1 119.18C444.82 119.32 444.57 119.51 444.38 119.75C444.27 119.91 444.16 120.09 444.07 120.27C443.99 120.45 443.92 120.63 443.86 120.83C443.81 121.02 443.77 121.22 443.75 121.41C443.73 121.61 443.72 121.81 443.74 122.01C443.72 122.24 443.73 122.47 443.75 122.69Z" />
	<path id="Layer" class="shp0" d="M374.51 266.97C365.14 266.97 357.58 259.41 357.58 250.04C357.58 240.68 365.14 233.11 374.51 233.11C383.87 233.11 391.43 240.68 391.43 250.04C391.43 259.41 383.87 266.97 374.51 266.97Z" />
	<path id="Layer" fill-rule="evenodd" class="shp0" d="M371.18 248.96C371.01 248.86 370.84 248.74 370.68 248.61C370.52 248.48 370.38 248.34 370.24 248.19C370.11 248.03 369.98 247.87 369.88 247.7C369.78 247.54 369.69 247.37 369.62 247.2C369.55 247.03 369.49 246.86 369.44 246.68C369.39 246.5 369.35 246.31 369.33 246.13C369.31 245.94 369.29 245.76 369.3 245.57C369.29 245.27 369.31 244.97 369.36 244.67C369.42 244.37 369.5 244.08 369.62 243.8C369.73 243.52 369.88 243.25 370.05 243C370.22 242.75 370.42 242.51 370.64 242.3C371.18 241.89 371.79 241.57 372.43 241.35C373.08 241.13 373.76 241.01 374.44 241.01C375.12 241.01 375.8 241.13 376.45 241.35C377.1 241.57 377.7 241.89 378.25 242.3C378.47 242.51 378.67 242.74 378.84 242.99C379.01 243.25 379.16 243.51 379.27 243.79C379.39 244.07 379.47 244.37 379.53 244.67C379.58 244.96 379.61 245.27 379.6 245.57C379.61 245.96 379.56 246.34 379.45 246.71C379.35 247.08 379.19 247.44 378.98 247.76C378.77 248.09 378.51 248.38 378.21 248.62C377.92 248.87 377.59 249.07 377.23 249.22C377.67 249.39 378.08 249.62 378.44 249.9C378.81 250.19 379.13 250.54 379.39 250.92C379.65 251.31 379.85 251.74 379.98 252.18C380.1 252.63 380.16 253.1 380.15 253.56C380.19 254.3 380.07 255.04 379.81 255.73C379.54 256.42 379.14 257.04 378.61 257.56C378.09 258.08 377.46 258.49 376.77 258.75C376.08 259.01 375.34 259.12 374.6 259.07C374.25 259.09 373.9 259.07 373.56 259.02C373.21 258.97 372.87 258.89 372.54 258.78C372.21 258.68 371.88 258.54 371.58 258.38C371.27 258.21 370.98 258.02 370.7 257.81C370.4 257.56 370.13 257.28 369.89 256.97C369.65 256.67 369.45 256.33 369.29 255.98C369.14 255.62 369.02 255.25 368.95 254.87C368.87 254.48 368.84 254.1 368.86 253.71C368.86 253.48 368.87 253.25 368.9 253.02C368.93 252.79 368.97 252.57 369.03 252.35C369.09 252.12 369.16 251.91 369.25 251.69C369.34 251.48 369.44 251.27 369.55 251.08C369.68 250.87 369.82 250.67 369.98 250.49C370.13 250.3 370.31 250.13 370.49 249.97C370.68 249.81 370.87 249.67 371.08 249.55C371.29 249.42 371.51 249.31 371.73 249.22C371.54 249.15 371.36 249.06 371.18 248.96ZM372.12 253.97C372.15 254.16 372.19 254.35 372.25 254.54C372.31 254.73 372.39 254.91 372.48 255.08C372.57 255.25 372.68 255.41 372.8 255.56C372.91 255.69 373.03 255.8 373.16 255.9C373.29 256 373.43 256.08 373.58 256.15C373.73 256.22 373.89 256.27 374.05 256.3C374.21 256.34 374.38 256.35 374.54 256.35C374.7 256.35 374.86 256.34 375.01 256.31C375.17 256.27 375.32 256.23 375.47 256.16C375.61 256.1 375.75 256.02 375.88 255.92C376.01 255.82 376.12 255.72 376.23 255.59C376.35 255.44 376.45 255.28 376.54 255.11C376.63 254.93 376.7 254.75 376.76 254.57C376.82 254.38 376.86 254.19 376.88 254C376.9 253.81 376.91 253.61 376.89 253.42C376.9 253.24 376.89 253.06 376.87 252.88C376.84 252.7 376.8 252.53 376.74 252.36C376.69 252.19 376.61 252.02 376.52 251.87C376.43 251.71 376.33 251.56 376.21 251.43C376.11 251.3 375.99 251.19 375.86 251.1C375.73 251 375.59 250.92 375.44 250.86C375.29 250.79 375.13 250.74 374.98 250.71C374.82 250.68 374.66 250.67 374.49 250.67C374.32 250.66 374.15 250.67 373.98 250.7C373.81 250.73 373.64 250.79 373.48 250.86C373.33 250.94 373.18 251.03 373.05 251.14C372.91 251.26 372.8 251.39 372.7 251.53C372.6 251.66 372.52 251.8 372.44 251.95C372.37 252.1 372.31 252.25 372.26 252.41C372.21 252.57 372.17 252.73 372.14 252.89C372.12 253.05 372.11 253.22 372.11 253.38C372.09 253.58 372.1 253.77 372.12 253.97ZM372.43 246.24C372.45 246.38 372.48 246.52 372.53 246.66C372.58 246.79 372.64 246.92 372.71 247.05C372.78 247.17 372.87 247.29 372.97 247.39C373.06 247.49 373.17 247.57 373.28 247.65C373.4 247.72 373.52 247.78 373.65 247.83C373.77 247.88 373.91 247.91 374.04 247.93C374.17 247.96 374.31 247.96 374.45 247.96C374.58 247.96 374.72 247.96 374.86 247.93C374.99 247.91 375.13 247.88 375.25 247.83C375.38 247.78 375.51 247.72 375.62 247.64C375.74 247.57 375.85 247.48 375.94 247.39C376.04 247.28 376.13 247.16 376.2 247.04C376.28 246.92 376.34 246.79 376.39 246.65C376.43 246.51 376.47 246.37 376.49 246.23C376.51 246.09 376.51 245.94 376.51 245.8C376.51 245.66 376.51 245.52 376.48 245.38C376.46 245.25 376.43 245.11 376.38 244.98C376.33 244.85 376.27 244.73 376.2 244.61C376.13 244.49 376.05 244.38 375.95 244.27C375.86 244.18 375.75 244.09 375.64 244.02C375.52 243.95 375.4 243.88 375.28 243.83C375.15 243.79 375.02 243.75 374.89 243.73C374.75 243.71 374.62 243.7 374.48 243.7C374.34 243.7 374.2 243.7 374.07 243.73C373.93 243.75 373.8 243.78 373.67 243.83C373.54 243.88 373.41 243.95 373.3 244.02C373.18 244.1 373.07 244.18 372.97 244.28C372.88 244.38 372.79 244.49 372.72 244.61C372.65 244.73 372.58 244.86 372.54 244.99C372.49 245.12 372.45 245.26 372.43 245.4C372.41 245.53 372.4 245.67 372.41 245.81C372.4 245.96 372.41 246.1 372.43 246.24Z" />
	<path id="Layer" class="shp0" d="M374.51 266.97C365.14 266.97 357.58 259.41 357.58 250.04C357.58 240.68 365.14 233.11 374.51 233.11C383.87 233.11 391.43 240.68 391.43 250.04C391.43 259.41 383.87 266.97 374.51 266.97Z" />
	<path id="Layer" fill-rule="evenodd" class="shp6" d="M371.18 248.96C371.01 248.86 370.84 248.74 370.68 248.61C370.52 248.48 370.38 248.34 370.24 248.19C370.11 248.03 369.98 247.87 369.88 247.7C369.78 247.54 369.69 247.37 369.62 247.2C369.55 247.03 369.49 246.86 369.44 246.68C369.39 246.5 369.35 246.31 369.33 246.13C369.31 245.94 369.29 245.76 369.3 245.57C369.29 245.27 369.31 244.97 369.36 244.67C369.42 244.37 369.5 244.08 369.62 243.8C369.73 243.52 369.88 243.25 370.05 243C370.22 242.75 370.42 242.51 370.64 242.3C371.18 241.89 371.79 241.57 372.43 241.35C373.08 241.13 373.76 241.01 374.44 241.01C375.12 241.01 375.8 241.13 376.45 241.35C377.1 241.57 377.7 241.89 378.25 242.3C378.47 242.51 378.67 242.74 378.84 242.99C379.01 243.25 379.16 243.51 379.27 243.79C379.39 244.07 379.47 244.37 379.53 244.67C379.58 244.96 379.61 245.27 379.6 245.57C379.61 245.96 379.56 246.34 379.45 246.71C379.35 247.08 379.19 247.44 378.98 247.76C378.77 248.09 378.51 248.38 378.21 248.62C377.92 248.87 377.59 249.07 377.23 249.22C377.67 249.39 378.08 249.62 378.44 249.9C378.81 250.19 379.13 250.54 379.39 250.92C379.65 251.31 379.85 251.74 379.98 252.18C380.1 252.63 380.16 253.1 380.15 253.56C380.19 254.3 380.07 255.04 379.81 255.73C379.54 256.42 379.14 257.04 378.61 257.56C378.09 258.08 377.46 258.49 376.77 258.75C376.08 259.01 375.34 259.12 374.6 259.07C374.25 259.09 373.9 259.07 373.56 259.02C373.21 258.97 372.87 258.89 372.54 258.78C372.21 258.68 371.88 258.54 371.58 258.38C371.27 258.21 370.98 258.02 370.7 257.81C370.4 257.56 370.13 257.28 369.89 256.97C369.65 256.67 369.45 256.33 369.29 255.98C369.14 255.62 369.02 255.25 368.95 254.87C368.87 254.48 368.84 254.1 368.86 253.71C368.86 253.48 368.87 253.25 368.9 253.02C368.93 252.79 368.97 252.57 369.03 252.35C369.09 252.12 369.16 251.91 369.25 251.69C369.34 251.48 369.44 251.27 369.55 251.08C369.68 250.87 369.82 250.67 369.98 250.49C370.13 250.3 370.31 250.13 370.49 249.97C370.68 249.81 370.87 249.67 371.08 249.55C371.29 249.42 371.51 249.31 371.73 249.22C371.54 249.15 371.36 249.06 371.18 248.96ZM372.12 253.97C372.15 254.16 372.19 254.35 372.25 254.54C372.31 254.73 372.39 254.91 372.48 255.08C372.57 255.25 372.68 255.41 372.8 255.56C372.91 255.69 373.03 255.8 373.16 255.9C373.29 256 373.43 256.08 373.58 256.15C373.73 256.22 373.89 256.27 374.05 256.3C374.21 256.34 374.38 256.35 374.54 256.35C374.7 256.35 374.86 256.34 375.01 256.31C375.17 256.27 375.32 256.23 375.47 256.16C375.61 256.1 375.75 256.02 375.88 255.92C376.01 255.82 376.12 255.72 376.23 255.59C376.35 255.44 376.45 255.28 376.54 255.11C376.63 254.93 376.7 254.75 376.76 254.57C376.82 254.38 376.86 254.19 376.88 254C376.9 253.81 376.91 253.61 376.89 253.42C376.9 253.24 376.89 253.06 376.87 252.88C376.84 252.7 376.8 252.53 376.74 252.36C376.69 252.19 376.61 252.02 376.52 251.87C376.43 251.71 376.33 251.56 376.21 251.43C376.11 251.3 375.99 251.19 375.86 251.1C375.73 251 375.59 250.92 375.44 250.86C375.29 250.79 375.13 250.74 374.98 250.71C374.82 250.68 374.66 250.67 374.49 250.67C374.32 250.66 374.15 250.67 373.98 250.7C373.81 250.73 373.64 250.79 373.48 250.86C373.33 250.94 373.18 251.03 373.05 251.14C372.91 251.26 372.8 251.39 372.7 251.53C372.6 251.66 372.52 251.8 372.44 251.95C372.37 252.1 372.31 252.25 372.26 252.41C372.21 252.57 372.17 252.73 372.14 252.89C372.12 253.05 372.11 253.22 372.11 253.38C372.09 253.58 372.1 253.77 372.12 253.97ZM372.43 246.24C372.45 246.38 372.48 246.52 372.53 246.66C372.58 246.79 372.64 246.92 372.71 247.05C372.78 247.17 372.87 247.29 372.97 247.39C373.06 247.49 373.17 247.57 373.28 247.65C373.4 247.72 373.52 247.78 373.65 247.83C373.77 247.88 373.91 247.91 374.04 247.93C374.17 247.96 374.31 247.96 374.45 247.96C374.58 247.96 374.72 247.96 374.86 247.93C374.99 247.91 375.13 247.88 375.25 247.83C375.38 247.78 375.51 247.72 375.62 247.64C375.74 247.57 375.85 247.48 375.94 247.39C376.04 247.28 376.13 247.16 376.2 247.04C376.28 246.92 376.34 246.79 376.39 246.65C376.43 246.51 376.47 246.37 376.49 246.23C376.51 246.09 376.51 245.94 376.51 245.8C376.51 245.66 376.51 245.52 376.48 245.38C376.46 245.25 376.43 245.11 376.38 244.98C376.33 244.85 376.27 244.73 376.2 244.61C376.13 244.49 376.05 244.38 375.95 244.27C375.86 244.18 375.75 244.09 375.64 244.02C375.52 243.95 375.4 243.88 375.28 243.83C375.15 243.79 375.02 243.75 374.89 243.73C374.75 243.71 374.62 243.7 374.48 243.7C374.34 243.7 374.2 243.7 374.07 243.73C373.93 243.75 373.8 243.78 373.67 243.83C373.54 243.88 373.41 243.95 373.3 244.02C373.18 244.1 373.07 244.18 372.97 244.28C372.88 244.38 372.79 244.49 372.72 244.61C372.65 244.73 372.58 244.86 372.54 244.99C372.49 245.12 372.45 245.26 372.43 245.4C372.41 245.53 372.4 245.67 372.41 245.81C372.4 245.96 372.41 246.1 372.43 246.24Z" />
	<path id="Layer" class="shp1" d="M232 515.97L1 515.97C0.73 515.97 0.48 515.87 0.29 515.68C0.11 515.49 0 515.24 0 514.97C0 514.71 0.11 514.45 0.29 514.27C0.48 514.08 0.73 513.97 1 513.97L232 513.97C232.27 513.97 232.52 514.08 232.71 514.27C232.89 514.45 233 514.71 233 514.97C233 515.24 232.89 515.49 232.71 515.68C232.52 515.87 232.27 515.97 232 515.97Z" />
</svg>