<svg version="1.2" baseProfile="tiny-ps" xmlns="http://www.w3.org/2000/svg" viewBox="0 0 774 611" width="774" height="611">
	<title>web-devoloper-svg-svg</title>
	<style>
		tspan { white-space:pre }
		.shp0 { fill: #e6e6e6 } 
		.shp1 { fill: #ffffff } 
		.shp2 { fill: #3f3d56 } 
		.shp3 { fill: #f2f2f2 } 
		.shp4 { fill: #ffb6b6 } 
		.shp5 { fill: #2f2e41 } 
		.shp6 { fill: #cbcbcb } 
		.shp7 { fill: #c64103 } 
		.shp8 { opacity: 0.102;fill: #000000 } 
		.shp9 { fill: #f1f1f1 } 
	</style>
	<path id="e81a7c33-c795-457d-8abc-c4a3c260cd56" class="shp0" d="M309.47 12.71L773.11 12.71L773.11 232.72L309.47 232.72L309.47 12.71Z" />
	<path id="be98c830-918a-42d1-b1b0-0085d5874e90" class="shp1" d="M322.73 31.58L759.86 31.58L759.86 215.13L322.73 215.13L322.73 31.58Z" />
	<path id="ea07d9fd-7a34-4098-acd7-056fd1871281" class="shp2" d="M309.28 0L772.92 0L772.92 19.7L309.28 19.7L309.28 0Z" />
	<path id="b9ed5a45-8896-4ed9-86b4-15f853c9a185" class="shp1" d="M323.91 15.23C321.89 15.23 320.26 13.6 320.26 11.58C320.26 9.56 321.89 7.93 323.91 7.93C325.93 7.93 327.56 9.56 327.56 11.58C327.56 13.6 325.93 15.23 323.91 15.23Z" />
	<path id="a9233a38-f8ba-48e0-88f3-496fd4836d40" class="shp1" d="M337.77 15.23C335.75 15.23 334.12 13.6 334.12 11.58C334.12 9.56 335.75 7.93 337.77 7.93C339.79 7.93 341.42 9.56 341.42 11.58C341.42 13.6 339.79 15.23 337.77 15.23Z" />
	<path id="aa82180f-a6a9-4f5f-82fc-e73106f4ad92" class="shp1" d="M351.63 15.23C349.61 15.23 347.98 13.6 347.98 11.58C347.98 9.56 349.61 7.93 351.63 7.93C353.65 7.93 355.28 9.56 355.28 11.58C355.28 13.6 353.65 15.23 351.63 15.23Z" />
	<path id="Layer" class="shp3" d="M584.27 61.28L656.95 61.28L656.95 185.43L584.27 185.43L584.27 61.28Z" />
	<path id="Layer" class="shp2" d="M425.64 61.28L572.23 61.28L572.23 95.45L425.64 95.45L425.64 61.28Z" />
	<path id="Layer" class="shp3" d="M425.64 104.97L572.23 104.97L572.23 141.74L425.64 141.74L425.64 104.97Z" />
	<path id="Layer" class="shp3" d="M425.64 151.26L572.23 151.26L572.23 185.43L425.64 185.43L425.64 151.26Z" />
	<path id="Layer" class="shp4" d="M221.2 367.1C221.22 364.58 220.7 362.09 219.68 359.79C218.67 357.49 217.18 355.43 215.31 353.74C213.44 352.05 211.24 350.78 208.84 350C206.45 349.23 203.92 348.97 201.41 349.24C201.22 349.26 201.02 349.29 200.82 349.32C200.62 349.35 200.43 349.38 200.23 349.41C200.04 349.45 199.84 349.49 199.65 349.53C199.45 349.58 199.26 349.62 199.07 349.67L138.6 297.84L142.21 278.37L112.41 268.71L103.43 299.92C102.9 301.78 102.67 303.72 102.76 305.65C102.84 307.58 103.23 309.49 103.92 311.3C104.61 313.1 105.58 314.79 106.8 316.29C108.02 317.79 109.48 319.09 111.11 320.13L185.49 367.17C185.49 367.32 185.49 367.46 185.49 367.61C185.5 367.76 185.5 367.9 185.51 368.05C185.52 368.19 185.53 368.34 185.54 368.49C185.55 368.63 185.57 368.78 185.58 368.92C185.85 371.42 186.65 373.84 187.92 376.01C189.19 378.19 190.91 380.07 192.95 381.53C195 382.99 197.34 384.01 199.8 384.51C202.27 385.01 204.82 384.98 207.27 384.42C207.45 384.38 207.63 384.34 207.8 384.3C207.98 384.25 208.16 384.2 208.33 384.15C208.51 384.1 208.68 384.05 208.86 383.99C209.03 383.94 209.2 383.88 209.38 383.82C211.09 383.2 212.69 382.32 214.14 381.22C215.59 380.12 216.86 378.8 217.91 377.31C218.96 375.83 219.78 374.19 220.34 372.46C220.9 370.73 221.19 368.92 221.2 367.1L221.2 367.1Z" />
	<path id="Layer" class="shp2" d="M70.88 427.21L148.84 427.21C148.84 429.45 229.19 431.27 229.19 431.27C229.5 431.51 229.81 431.75 230.11 432.01C230.41 432.26 230.7 432.52 230.99 432.8C231.28 433.07 231.55 433.35 231.83 433.63C232.1 433.92 232.36 434.21 232.61 434.52C233.37 435.42 234.04 436.38 234.63 437.4C235.22 438.42 235.71 439.49 236.11 440.6C236.52 441.7 236.82 442.84 237.02 444C237.22 445.16 237.32 446.33 237.32 447.51L237.32 450.75C237.32 453.42 236.79 456.06 235.77 458.52C234.75 460.98 233.26 463.22 231.37 465.1C229.49 466.99 227.25 468.48 224.79 469.5C222.33 470.52 219.69 471.05 217.02 471.05L70.88 471.05C68.22 471.05 65.58 470.52 63.12 469.5C60.66 468.48 58.42 466.99 56.53 465.1C54.65 463.22 53.15 460.98 52.13 458.52C51.11 456.06 50.59 453.42 50.58 450.75L50.58 447.51C50.59 444.84 51.12 442.2 52.14 439.74C53.16 437.28 54.65 435.05 56.54 433.16C58.42 431.28 60.66 429.78 63.12 428.76C65.58 427.74 68.22 427.21 70.88 427.21L70.88 427.21Z" />
	<path id="Layer" class="shp2" d="M134.57 470.25L155.68 470.25L155.68 606.64L134.57 606.64L134.57 470.25Z" />
	<path id="Layer" class="shp2" d="M215.76 608.34C215.76 610.89 183.77 609.33 144.32 609.33C104.86 609.33 72.87 610.89 72.87 608.34C72.87 605.79 104.86 585.53 144.32 585.53C183.77 585.53 215.76 605.79 215.76 608.34Z" />
	<path id="Layer" class="shp4" d="M196.71 589.92L216.61 589.91L226.08 538.28L196.7 538.28L196.71 589.92L196.71 589.92Z" />
	<path id="Layer" class="shp5" d="M191.63 609.21L255.82 609.21L255.82 608.4C255.82 605.12 255.17 601.87 253.92 598.84C252.66 595.81 250.82 593.05 248.5 590.73C246.18 588.41 243.43 586.57 240.4 585.32C237.36 584.06 234.12 583.41 230.84 583.41L230.83 583.41L191.63 583.42L191.63 609.21Z" />
	<path id="Layer" class="shp6" d="M226.48 557.9L266.17 468.9C267.81 465.18 268.74 461.19 268.92 457.13C269.09 453.07 268.51 449.01 267.19 445.17C265.88 441.32 263.86 437.76 261.23 434.65C258.61 431.55 255.42 428.97 251.85 427.03L165.77 380.87L126.48 377.53L90.25 374.24L89.99 374.68C89.65 375.24 81.86 388.7 87.13 403.46C91.12 414.65 101.51 423.39 118.01 429.44C156.52 443.56 201 455.63 218.34 460.16C218.72 460.26 219.09 460.39 219.45 460.57C219.8 460.75 220.13 460.96 220.44 461.2C220.75 461.45 221.03 461.73 221.28 462.03C221.53 462.34 221.75 462.67 221.93 463.02C222.11 463.36 222.26 463.73 222.36 464.1C222.47 464.48 222.54 464.87 222.57 465.26C222.59 465.65 222.58 466.04 222.53 466.42C222.47 466.81 222.38 467.19 222.25 467.56L185.38 550.4C184.99 551.45 184.86 552.57 184.97 553.69C185.09 554.8 185.46 555.87 186.06 556.82C186.66 557.76 187.47 558.56 188.42 559.14C189.38 559.73 190.45 560.09 191.56 560.19L219.11 562.2C219.35 562.22 219.58 562.23 219.81 562.23C220.52 562.23 221.21 562.13 221.89 561.93C222.56 561.73 223.2 561.43 223.79 561.05C224.38 560.67 224.91 560.2 225.36 559.67C225.82 559.14 226.2 558.54 226.48 557.9L226.48 557.9Z" />
	<path id="Layer" class="shp4" d="M183.72 589.92L203.62 589.91L213.09 538.28L183.71 538.28L183.72 589.92L183.72 589.92Z" />
	<path id="Layer" class="shp5" d="M178.64 609.21L242.83 609.21L242.83 608.4C242.83 605.12 242.18 601.87 240.93 598.84C239.67 595.81 237.83 593.05 235.51 590.73C233.19 588.41 230.44 586.57 227.41 585.32C224.37 584.06 221.13 583.41 217.84 583.41L217.84 583.41L178.64 583.42L178.64 609.21Z" />
	<path id="Layer" class="shp6" d="M211.87 562.77L251.55 473.77C253.2 470.05 254.13 466.06 254.3 462C254.48 457.94 253.9 453.88 252.58 450.04C251.26 446.19 249.24 442.63 246.62 439.52C243.99 436.42 240.81 433.84 237.23 431.9L151.15 385.74L111.87 382.4L83.49 379.94L83.49 379.55C83.16 380.12 75.37 393.57 80.63 408.33C84.63 419.52 86.9 428.26 103.4 434.31C141.91 448.43 186.39 460.5 203.73 465.03C204.11 465.13 204.48 465.27 204.83 465.44C205.19 465.62 205.52 465.83 205.83 466.07C206.14 466.32 206.42 466.6 206.67 466.9C206.92 467.21 207.14 467.54 207.32 467.89C207.5 468.23 207.64 468.6 207.75 468.97C207.86 469.35 207.92 469.74 207.95 470.13C207.98 470.52 207.97 470.91 207.91 471.3C207.86 471.68 207.77 472.06 207.64 472.43L170.77 555.27C170.38 556.32 170.24 557.45 170.36 558.56C170.48 559.67 170.85 560.74 171.45 561.69C172.05 562.63 172.85 563.43 173.81 564.01C174.76 564.6 175.84 564.96 176.95 565.06L204.5 567.07C204.73 567.09 204.97 567.1 205.2 567.1C205.9 567.1 206.6 567 207.27 566.8C207.95 566.6 208.59 566.3 209.17 565.92C209.76 565.54 210.29 565.07 210.75 564.54C211.2 564.01 211.58 563.41 211.87 562.77Z" />
	<path id="Layer" class="shp5" d="M137.07 381.56C138.98 380.22 166.3 394.55 171.17 383.19C148.44 326.36 164.11 301.81 150.18 269.22C148.96 266.42 147.42 263.77 145.61 261.31C143.79 258.85 141.7 256.61 139.37 254.62C137.05 252.63 134.51 250.92 131.8 249.5C129.1 248.08 126.24 246.97 123.28 246.2L87.15 244.37L86.96 244.46C82.91 246.45 79.21 249.07 75.99 252.22C72.77 255.38 70.07 259.03 68 263.04C65.94 267.05 64.53 271.36 63.83 275.82C63.12 280.27 63.14 284.81 63.88 289.26C64 324.73 85.23 351.78 77.81 377.51C77.65 378.05 77.55 378.6 77.5 379.15C77.46 379.71 77.47 380.27 77.54 380.82C77.61 381.38 77.73 381.92 77.91 382.45C78.08 382.98 78.31 383.49 78.59 383.98C78.86 384.45 79.18 384.88 79.54 385.29C79.9 385.69 80.3 386.05 80.73 386.38C81.17 386.7 81.63 386.97 82.12 387.2C82.61 387.43 83.12 387.6 83.65 387.73L131.35 381.36C131.91 381.5 132.48 381.57 133.05 381.58C133.62 381.59 134.19 381.54 134.75 381.44C135.31 381.33 135.86 381.16 136.39 380.94C136.91 380.71 137.41 380.43 137.88 380.1L137.07 381.56Z" />
	<path id="Layer" class="shp4" d="M99.21 230.88C77.15 230.88 59.33 213.05 59.33 191C59.33 168.94 77.15 151.12 99.21 151.12C121.26 151.12 139.09 168.94 139.09 191C139.09 213.05 121.26 230.88 99.21 230.88Z" />
	<path id="Layer" class="shp7" d="M86.51 227.6C88.62 228.53 92.96 211.65 91.02 208.27C88.13 203.25 88.3 203.28 86.38 199.96C84.46 196.64 84.03 192.09 86.52 189.17C89 186.24 94.75 186.63 95.89 190.3C95.16 183.33 102.05 177.74 108.87 176.16C115.69 174.59 122.88 175.57 129.74 174.17C137.7 172.54 145.99 165.87 142.81 157.12C142.67 156.75 142.52 156.4 142.35 156.05C142.18 155.7 142 155.36 141.79 155.03C141.59 154.7 141.38 154.37 141.14 154.06C140.91 153.75 140.67 153.45 140.41 153.17C136.74 149.04 131.6 147.28 126.58 145.57C116.14 142.03 105.42 138.44 94.4 138.83C76.29 139.48 59.18 151.99 53.08 169.05C52.89 169.58 52.71 170.12 52.54 170.66C52.37 171.2 52.21 171.74 52.07 172.28C51.92 172.83 51.78 173.38 51.66 173.93C51.53 174.48 51.42 175.03 51.32 175.59C47.54 195.92 59.35 215.98 78.53 223.73L86.51 227.6Z" />
	<path id="Layer" class="shp2" d="M295.65 291.74L300.23 318.89C300.24 318.97 300.25 319.05 300.25 319.12C300.25 319.2 300.25 319.27 300.24 319.35C300.23 319.43 300.22 319.5 300.2 319.58C300.18 319.65 300.16 319.72 300.13 319.79L264.25 409.45C264.11 409.8 263.85 410.1 263.52 410.28C263.18 410.47 262.79 410.54 262.42 410.47C262.04 410.41 261.7 410.22 261.44 409.93C261.19 409.64 261.04 409.28 261.03 408.9L259.51 372.87C259.51 372.81 259.51 372.75 259.51 372.69C259.51 372.63 259.52 372.57 259.53 372.51C259.54 372.45 259.56 372.4 259.57 372.34C259.59 372.28 259.61 372.22 259.63 372.17L292.46 291.39C292.59 291.05 292.84 290.77 293.15 290.58C293.46 290.39 293.83 290.31 294.19 290.35C294.55 290.39 294.89 290.55 295.15 290.8C295.42 291.05 295.59 291.38 295.65 291.74L295.65 291.74Z" />
	<path id="Layer" class="shp2" d="M293.11 293.82L297.46 317.15L265.62 398.96L261.49 372.65L293.11 293.82L293.11 293.82Z" />
	<path id="Layer" class="shp2" d="M153.8 409.03C154.59 412.09 257.44 415.4 258.51 414.47C258.75 414.18 258.98 413.87 259.2 413.57C259.43 413.26 259.64 412.94 259.85 412.62C260.06 412.3 260.25 411.98 260.44 411.65C260.63 411.32 260.81 410.98 260.99 410.65C262.06 408.72 263.06 406.79 263.06 406.79L261.37 374.26L160.05 363.43C160.05 363.43 155.57 390.58 154.16 403.05C154.08 403.54 154.01 404.04 153.96 404.54C153.9 405.03 153.86 405.53 153.83 406.03C153.8 406.53 153.79 407.03 153.78 407.53C153.78 408.03 153.78 408.53 153.8 409.03Z" />
	<path id="Layer" class="shp8" d="M248.11 377.7L248.12 405.73L203.31 402.54L205.29 374.66L248.11 377.7L248.11 377.7Z" />
	<path id="Layer" class="shp8" d="M189.72 382.56L189.99 382.52L187.87 394.44L162.97 392.67L163.82 380.72L189.72 382.56L189.72 382.56Z" />
	<path id="Layer" class="shp8" d="M153.8 409.03C154.59 412.09 257.44 415.4 258.51 414.47C258.75 414.18 258.98 413.87 259.2 413.57C259.43 413.26 259.64 412.94 259.85 412.62C260.06 412.3 260.25 411.98 260.44 411.65C260.63 411.32 260.81 410.98 260.99 410.65L154.16 403.05C154.08 403.54 154.01 404.04 153.96 404.54C153.9 405.03 153.86 405.53 153.83 406.03C153.8 406.53 153.79 407.03 153.78 407.53C153.78 408.03 153.78 408.53 153.8 409.03L153.8 409.03Z" />
	<path id="Layer" class="shp4" d="M112.5 360.45L199.27 376.65C199.32 376.78 199.38 376.92 199.44 377.05C199.49 377.18 199.55 377.32 199.61 377.45C199.67 377.58 199.74 377.72 199.8 377.85C199.87 377.98 199.93 378.11 200 378.24C200.59 379.34 201.29 380.39 202.1 381.34C202.9 382.3 203.8 383.18 204.79 383.95C205.78 384.72 206.84 385.38 207.97 385.93C209.1 386.48 210.28 386.91 211.49 387.21C212.71 387.52 213.96 387.69 215.22 387.74C216.48 387.78 217.74 387.69 218.97 387.46C220.21 387.24 221.42 386.88 222.59 386.4C223.75 385.92 224.86 385.32 225.89 384.6C229.65 382.02 232.28 378.1 233.24 373.64C234.2 369.18 233.42 364.52 231.06 360.62C228.7 356.72 224.93 353.87 220.54 352.66C216.14 351.44 211.45 351.96 207.42 354.09C207.24 354.18 207.07 354.28 206.89 354.38C206.72 354.48 206.55 354.59 206.38 354.69C206.22 354.8 206.05 354.91 205.88 355.02C205.72 355.13 205.56 355.25 205.4 355.36L130.04 329.62L126.18 310.19L94.92 312.26L98.16 344.83C98.35 346.72 98.85 348.56 99.63 350.29C100.41 352.02 101.46 353.62 102.74 355.02C104.03 356.41 105.53 357.6 107.18 358.52C108.84 359.45 110.64 360.1 112.5 360.45L112.5 360.45Z" />
	<path id="Layer" class="shp5" d="M93.86 326.78L139.28 311.86L128.69 281.43C127.99 279.43 126.94 277.56 125.6 275.92C124.26 274.28 122.64 272.88 120.81 271.8C118.98 270.72 116.98 269.96 114.9 269.57C112.81 269.18 110.67 269.16 108.58 269.51L108.58 269.51C106.46 269.86 104.42 270.59 102.56 271.65C100.7 272.72 99.04 274.11 97.66 275.75C96.28 277.4 95.2 279.28 94.48 281.3C93.76 283.32 93.4 285.45 93.43 287.6L93.86 326.78Z" />
	<path id="Layer" class="shp6" d="M382 610.8L1 610.8C0.73 610.8 0.48 610.7 0.29 610.51C0.11 610.32 0 610.07 0 609.8C0 609.54 0.11 609.28 0.29 609.1C0.48 608.91 0.73 608.8 1 608.8L382 608.8C382.27 608.8 382.52 608.91 382.71 609.1C382.89 609.28 383 609.54 383 609.8C383 610.07 382.89 610.32 382.71 610.51C382.52 610.7 382.27 610.8 382 610.8Z" />
	<path id="Layer" class="shp9" d="M530.21 579.3C548.48 588.75 556.61 609.35 556.61 609.35C556.61 609.35 535.1 614.6 516.83 605.15C498.56 595.69 490.43 575.1 490.43 575.1C490.43 575.1 511.93 569.84 530.21 579.3Z" />
	<path id="Layer" class="shp9" d="M524.36 586.11C535.27 603.56 556.45 609.99 556.45 609.99C556.45 609.99 559.95 588.13 549.05 570.68C538.14 553.24 516.96 546.8 516.96 546.8C516.96 546.8 513.46 568.66 524.36 586.11Z" />
	<path id="Layer" class="shp6" d="M590 610.41L476 610.41C475.73 610.41 475.48 610.3 475.29 610.11C475.11 609.93 475 609.67 475 609.41C475 609.14 475.11 608.89 475.29 608.7C475.48 608.51 475.73 608.41 476 608.41L590 608.41C590.27 608.41 590.52 608.51 590.71 608.7C590.89 608.89 591 609.14 591 609.41C591 609.67 590.89 609.93 590.71 610.11C590.52 610.3 590.27 610.41 590 610.41Z" />
</svg>